<svg width="110" height="82" viewBox="0 0 110 82" fill="none" xmlns="http://www.w3.org/2000/svg">
<path d="M98.2965 63.9203C95.8179 65.8049 92.7827 64.0751 90.7432 62.3532C88.6212 60.5554 86.5329 58.7126 84.4274 56.9002C84.9522 60.9913 84.7589 65.1706 83.645 69.0957C83.1558 70.878 81.9305 72.4805 80.0098 72.7755C78.1442 73.066 76.5922 71.7908 76.0192 70.075C75.4594 68.407 75.5713 66.4832 75.65 64.7535C75.7364 62.8672 76.0024 61.0002 76.3852 59.1483C76.6655 57.7767 77.0397 56.411 77.4831 55.0732C76.3966 55.9387 75.302 56.8116 74.2081 57.6689C72.5336 58.9998 70.8592 60.3306 69.1773 61.6532C67.7483 62.7798 66.2881 63.9044 64.385 64.0042C60.3114 64.2184 58.6735 59.6411 60.8621 56.655C61.9815 55.1322 63.6915 54.1882 65.3061 53.2695C66.9043 52.3656 68.5389 51.5188 70.2157 50.769C71.5398 50.1695 72.8937 49.6034 74.269 49.0778C73.2018 48.7751 72.1623 48.3878 71.158 47.9241C69.3339 47.0713 67.5989 46.0044 66.0723 44.6915C64.6892 43.4898 63.3132 42.1471 62.7358 40.3604C62.1444 38.5413 62.6683 36.5335 64.4245 35.6081C66.3089 34.628 68.4305 35.3347 70.0317 36.566C72.7585 38.6609 75.3155 41.012 77.8906 43.3171C76.3801 39.3287 76.256 34.9096 77.8962 30.8137C78.3352 29.7189 78.8916 28.4745 79.7279 27.5932C79.7787 27.5179 79.8362 27.4666 79.8936 27.4153C80.0414 27.2833 80.181 27.1586 80.3429 27.059C81.8394 25.9916 83.8164 26.4537 84.9204 27.9048C85.9649 29.2893 86.1861 31.1399 86.3534 32.8145C86.5257 34.5444 86.5639 36.2893 86.4302 38.0234C86.3116 39.6093 86.0524 41.1864 85.6696 42.7243C86.7302 41.7472 87.8496 40.8522 88.9872 40.0605C90.304 39.1388 91.6918 38.3629 93.3365 38.2546C95.0915 38.1376 96.9441 38.8902 97.8862 40.4409C98.7779 41.9021 98.6441 43.6362 97.8043 45.0589C96.9211 46.5653 95.3835 47.3553 93.781 47.8744C92.6571 48.2353 91.519 48.5639 90.3587 48.8675C93.1554 50.3467 95.6738 52.3736 97.698 54.8716C99.7445 57.3946 101.428 61.5274 98.2965 63.9203Z" fill="#E36025"/>
<path d="M81.5412 55.703C78.5107 56.7917 75.3526 54.6163 75.0199 51.5036C74.8239 49.6328 75.7059 47.735 77.3645 46.7614C79.9233 45.2534 83.2206 46.2419 84.404 48.928C85.5276 51.4929 84.2856 54.7113 81.5412 55.703Z" fill="#F8F2EE"/>
<path d="M23.3348 34.7646C21.2382 34.7132 20.4045 32.5648 20.0756 30.832C19.7443 29.0133 19.4358 27.2035 19.1201 25.3856C17.6466 27.7293 15.7676 29.8185 13.515 31.3896C12.4942 32.1103 11.1864 32.4264 10.0552 31.792C8.96234 31.1673 8.7079 29.8673 9.12948 28.7419C9.54912 27.6476 10.4279 26.7013 11.2084 25.8281C12.0633 24.8884 12.9912 24.0304 13.9774 23.2378C14.7176 22.6356 15.4932 22.0897 16.2898 21.584C15.3459 21.5752 14.4174 21.5673 13.4808 21.5667C12.0368 21.5639 10.6011 21.5538 9.16548 21.5436C7.94769 21.5444 6.69975 21.5281 5.66867 20.7895C3.464 19.2193 4.56097 16.1545 6.98143 15.5202C8.20406 15.192 9.50163 15.4136 10.7306 15.6083C11.944 15.8023 13.1545 16.0429 14.3456 16.345C15.2906 16.5877 16.2346 16.8461 17.1766 17.1355C16.753 16.5447 16.379 15.9095 16.0453 15.253C15.4718 14.0617 15.0204 12.7907 14.7825 11.476C14.5679 10.2872 14.4288 9.01644 14.8917 7.85413C15.3638 6.66888 16.4848 5.84407 17.796 6.09758C19.1923 6.36319 20.0045 7.60558 20.3057 8.90793C20.8306 11.1265 21.1575 13.3896 21.5156 15.6544C22.4254 12.9623 24.2495 10.6285 26.8459 9.17618C27.5414 8.7901 28.356 8.37104 29.174 8.27198C29.2299 8.25141 29.2849 8.24639 29.3316 8.24875C29.457 8.23949 29.5898 8.2384 29.7143 8.2447C30.9511 8.31503 31.7906 9.37157 31.7386 10.5781C31.6905 11.7223 31.0155 12.7803 30.3877 13.7081C29.7415 14.6817 29.013 15.5966 28.2106 16.4453C27.4753 17.2194 26.6661 17.9273 25.8068 18.5626C26.7785 18.5025 27.7473 18.4891 28.6718 18.5592C29.7456 18.6135 30.7961 18.7914 31.6939 19.4141C32.6667 20.0873 33.3053 21.2351 33.1444 22.4361C32.9811 23.5511 32.1631 24.3991 31.1243 24.7834C30.0286 25.2038 28.8877 24.9745 27.8269 24.5855C27.0872 24.3063 26.3567 24.0041 25.6272 23.6864C26.4516 25.6081 26.8982 27.7056 26.8823 29.8344C26.8727 31.987 25.9854 34.8206 23.3348 34.7646Z" fill="#F3C127"/>
<path d="M19.1304 22.5414C17.4097 21.9254 16.7795 19.787 17.7322 18.2781C18.307 17.3672 19.3739 16.8395 20.4473 17.0052C22.1143 17.2716 23.2253 18.912 22.7927 20.546C22.3775 22.1234 20.6951 23.1048 19.1304 22.5414Z" fill="#F8F2EE"/>
</svg>
