<svg width="839" height="873" viewBox="0 0 839 873" fill="none" xmlns="http://www.w3.org/2000/svg">
<path d="M500.438 45.4654C482.312 98.5204 438.807 134.647 382.89 168.456C281.496 229.753 217.983 307.755 336.934 526.578C428.325 694.707 399.187 795.023 336.217 833.709L315.295 833.71C370.982 796.761 381.848 702.11 302.901 533.739C197.448 308.818 245.701 212.487 352.126 155.452C415.869 121.297 459.009 89.9595 479.612 45.466" fill="#F3C127"/>
<path d="M479.611 45.466C459.008 89.9595 415.869 121.297 352.125 155.452C245.7 212.487 197.447 308.818 302.901 533.739C381.848 702.11 370.987 796.771 315.3 833.72L288.195 833.708C334.904 793.347 337.263 685.768 262.445 510.291C147.638 240.969 213.29 200.193 324.093 146.216C372.549 122.626 415.547 92.6198 441.236 45.4579" fill="#E36025"/>
<path d="M531.763 45.4685C523.275 102.844 483.111 144.704 413.659 181.446C310.683 235.927 250.423 308.773 373.664 526.377C467.492 692.032 425.489 794.321 357.125 833.727L336.217 833.709C399.187 795.023 428.325 694.707 336.934 526.578C217.983 307.755 281.496 229.753 382.89 168.456C438.807 134.647 482.317 98.5301 500.437 45.4655" fill="#A1A537"/>
<path d="M553.197 45.4714C549.269 95.495 508.781 135.85 444.419 194.441C344.447 285.474 279.265 328.914 411.408 542.861C510.199 702.8 460.664 796.563 383.922 833.728L357.125 833.727C425.489 794.321 467.502 692.027 373.664 526.377C250.423 308.773 310.683 235.927 413.659 181.446C483.111 144.704 523.29 102.848 531.763 45.4685" fill="#5F632A"/>
<path d="M436.862 637.708C439.481 638.472 439.849 641.456 439.689 643.765C439.535 646.157 439.324 648.554 439.151 650.955C441.747 648.486 444.791 646.489 448.118 645.255C449.635 644.695 451.384 644.73 452.611 645.918C453.774 647.077 453.686 648.793 452.793 650.074C451.909 651.326 450.502 652.218 449.248 653.054C447.869 653.955 446.422 654.722 444.916 655.397C443.808 655.905 442.656 656.35 441.493 656.704C442.668 657.034 443.837 657.355 445.016 657.671C446.823 658.173 448.635 658.66 450.433 659.143C451.969 659.566 453.526 660.003 454.579 661.278C456.853 664.011 454.489 667.5 451.241 667.495C449.602 667.487 448.044 666.785 446.562 666.116C445.091 665.466 443.653 664.763 442.242 663.973C441.137 663.353 440.037 662.718 438.955 662.026C439.292 662.919 439.562 663.846 439.755 664.788C440.104 666.486 440.262 668.233 440.14 669.979C440.016 671.556 439.783 673.201 438.837 674.522C437.863 675.857 436.178 676.515 434.614 675.755C432.944 674.953 432.337 673.109 432.362 671.364C432.424 668.39 432.74 665.419 433.018 662.443C430.997 665.538 427.961 667.882 424.237 668.835C423.237 669.082 422.073 669.339 421.017 669.191C420.944 669.192 420.872 669.193 420.799 669.169C420.64 669.142 420.481 669.091 420.326 669.049C418.789 668.554 418.078 666.932 418.53 665.429C418.964 663.984 420.143 662.883 421.236 661.922C422.354 660.914 423.563 659.991 424.851 659.197C426.029 658.472 427.271 657.847 428.543 657.328C427.311 657.076 426.099 656.765 424.948 656.387C423.623 655.928 422.35 655.358 421.418 654.273C420.424 653.113 419.987 651.435 420.584 649.979C421.144 648.614 422.432 647.821 423.871 647.676C425.383 647.53 426.739 648.191 427.942 649.051C428.787 649.635 429.613 650.277 430.424 650.914C429.996 648.216 430.117 645.429 430.822 642.743C431.532 640.018 433.556 636.74 436.862 637.708Z" fill="#F8F2EE"/>
<path d="M438.736 653.759C440.861 655.212 440.951 658.338 439.109 660.058C437.997 661.101 436.357 661.445 434.953 660.833C432.775 659.892 431.852 657.265 433.031 655.196C434.153 653.204 436.815 652.444 438.736 653.759Z" fill="#F3C127"/>
<path d="M466.261 596.016C466.204 596.045 466.127 596.085 466.065 596.129C465.399 596.506 464.694 596.807 463.959 597.051C463.22 597.309 462.427 597.51 461.63 597.398C459.705 597.114 458.721 595.1 459.469 593.348C460.104 591.872 461.582 590.787 463.012 590.151C463.275 590.028 463.549 589.924 463.828 589.829C463.721 589.763 463.614 589.697 463.507 589.63C462.232 588.795 460.794 587.716 460.575 586.085C460.35 584.323 461.552 582.629 463.452 582.745C465.168 582.858 466.315 584.291 467.263 585.573C467.278 585.602 467.297 585.616 467.317 585.655C467.322 585.64 467.326 585.625 467.326 585.601C467.743 583.935 468.576 581.994 470.264 581.249C471.89 580.524 474.075 581.148 474.633 582.968C474.957 584.025 474.501 585.094 474.072 586.053C473.733 586.808 473.316 587.53 472.851 588.205C473.264 588.138 473.693 588.076 474.111 588.043C475.026 587.961 475.928 587.995 476.835 588.111C477.708 588.232 478.654 588.377 479.42 588.832C480.385 589.415 480.892 590.498 480.547 591.596C480.211 592.664 479.331 593.309 478.308 593.676C476.561 594.306 474.6 594.403 472.781 594.113C472.723 594.095 472.67 594.085 472.607 594.081C473.474 595.489 474.274 597.307 473.775 598.955C473.253 600.7 471.48 601.682 469.734 601.04C468.118 600.439 467.14 599.028 466.609 597.448C466.454 596.982 466.339 596.497 466.261 596.016Z" fill="#E36025"/>
<path d="M470.55 590.33C470.754 590.916 470.751 591.571 470.4 592.114C470.333 592.221 470.257 592.309 470.166 592.391C470.043 592.6 469.857 592.78 469.613 592.893C469.152 593.081 468.714 593.172 468.227 593.071C467.589 592.938 466.992 592.482 466.74 591.872C466.295 590.817 466.828 589.66 467.835 589.167C468.856 588.68 470.168 589.278 470.55 590.33Z" fill="#F8F2EE"/>
<path d="M388.448 566.882C389.758 567.263 389.947 568.765 389.867 569.932C389.793 571.132 389.69 572.348 389.606 573.553C390.903 572.306 392.445 571.298 394.115 570.684C394.879 570.401 395.761 570.421 396.379 571.012C396.968 571.594 396.919 572.467 396.472 573.107C396.031 573.733 395.308 574.189 394.676 574.61C393.996 575.055 393.263 575.443 392.51 575.793C391.939 576.05 391.373 576.267 390.777 576.452C391.372 576.619 391.961 576.777 392.55 576.935C393.464 577.181 394.367 577.432 395.281 577.678C396.054 577.887 396.846 578.11 397.368 578.75C398.52 580.122 397.328 581.883 395.69 581.876C394.856 581.879 394.077 581.516 393.331 581.196C392.591 580.862 391.864 580.508 391.161 580.105C390.604 579.798 390.047 579.466 389.499 579.13C389.667 579.576 389.802 580.052 389.908 580.518C390.081 581.374 390.157 582.255 390.089 583.137C390.034 583.928 389.927 584.758 389.442 585.418C388.953 586.093 388.108 586.429 387.319 586.047C386.472 585.646 386.163 584.715 386.183 583.833C386.216 582.338 386.365 580.834 386.508 579.343C385.498 580.891 383.958 582.068 382.089 582.554C381.584 582.68 380.998 582.811 380.467 582.744C380.428 582.74 380.39 582.735 380.356 582.716C380.279 582.708 380.196 582.689 380.109 582.661C379.341 582.414 378.995 581.598 379.214 580.844C379.433 580.114 380.03 579.554 380.569 579.071C381.137 578.574 381.745 578.105 382.396 577.699C382.985 577.336 383.613 577.026 384.261 576.754C383.633 576.64 383.029 576.478 382.444 576.281C381.772 576.057 381.128 575.77 380.665 575.22C380.163 574.642 379.947 573.796 380.248 573.061C380.525 572.374 381.176 571.967 381.903 571.897C382.663 571.822 383.346 572.162 383.953 572.589C384.375 572.894 384.793 573.212 385.201 573.536C384.985 572.169 385.047 570.757 385.41 569.409C385.762 568.041 386.776 566.383 388.448 566.882Z" fill="#F8F2EE"/>
<path d="M389.384 574.963C390.461 575.694 390.506 577.269 389.57 578.136C389.017 578.662 388.195 578.83 387.483 578.528C386.389 578.048 385.923 576.737 386.51 575.686C387.073 574.683 388.413 574.298 389.384 574.963Z" fill="#F3C127"/>
<path fill-rule="evenodd" clip-rule="evenodd" d="M530.637 601.117C526.892 602.456 520.78 605.954 518.431 599.651C521.324 604.512 518.65 606.973 514.092 610.243C513.795 610.468 511.65 611.314 512.519 611.474C517.227 609.604 522.247 606.642 525.041 611.784C523.289 607.258 525.605 603.818 530.637 601.117Z" fill="#F3C127"/>
<path fill-rule="evenodd" clip-rule="evenodd" d="M477.703 528.745C470.849 531.413 464.232 533.196 460.377 524.663C460.15 524.101 459.751 524.221 459.913 524.537C466.087 532.656 460.895 537.619 453.751 542.034C460.75 539.462 467.721 536.976 471.912 544.865C468.367 537.977 470.056 532.534 477.703 528.745Z" fill="#E36025"/>
</svg>
