<svg width="46" height="63" viewBox="0 0 46 63" fill="none" xmlns="http://www.w3.org/2000/svg">
<path fill-rule="evenodd" clip-rule="evenodd" d="M7.14751 10C7.60821 14.566 8.48355 18.7488 14.1963 18.4596C14.5649 18.426 14.6109 18.6815 14.3937 18.6815C8.25978 17.5652 7.00929 21.8623 6.60124 27.0873C6.0484 22.4675 5.45606 17.888 0 17.8073C4.7321 17.814 7.2199 15.3259 7.14751 10Z" fill="#E36025"/>
<path fill-rule="evenodd" clip-rule="evenodd" d="M35.6081 0C36.2274 6.1379 37.404 11.7605 45.0834 11.3718C45.5788 11.3266 45.6408 11.6702 45.3488 11.6702C37.1032 10.1696 35.4223 15.9459 34.8737 22.9697C34.1306 16.7595 33.3343 10.6035 26 10.495C32.3611 10.504 35.7054 7.15938 35.6081 0Z" fill="#E36025"/>
<path fill-rule="evenodd" clip-rule="evenodd" d="M22.5765 35C23.3227 42.3954 24.7404 49.17 33.9931 48.7016C34.59 48.6472 34.6646 49.0611 34.3129 49.0611C24.378 47.2531 22.3526 54.2128 21.6917 62.6756C20.7963 55.193 19.8369 47.7759 11 47.6452C18.6644 47.656 22.6937 43.6262 22.5765 35Z" fill="#E36025"/>
</svg>
