<svg width="292" height="81" viewBox="0 0 292 81" fill="none" xmlns="http://www.w3.org/2000/svg">
<path d="M201.55 26.3244C202.034 28.5065 204.5 28.9659 206.416 28.9679C208.412 28.9666 210.411 28.9251 212.406 28.9081C210.221 30.9068 208.389 33.2868 207.179 35.9544C206.621 37.158 206.55 38.6043 207.465 39.6566C208.353 40.6809 209.795 40.7017 210.905 40.027C211.985 39.3725 212.815 38.2663 213.574 37.2819C214.402 36.2081 215.122 35.0616 215.771 33.8692C216.253 32.9875 216.681 32.0656 217.058 31.1268C217.252 32.105 217.448 33.0909 217.65 34.0679C217.95 35.5737 218.251 37.0795 218.559 38.5842C218.82 39.8642 219.099 41.1576 220.095 42.0947C222.229 44.101 225.249 42.352 225.434 39.7007C225.526 38.3471 225.027 37.0368 224.568 35.7847C224.111 34.5482 223.608 33.3263 223.037 32.1378C222.589 31.1953 222.11 30.2573 221.6 29.3315C222.325 29.6605 223.074 29.9302 223.84 30.1418C225.235 30.5203 226.68 30.7401 228.126 30.7284C229.441 30.7112 230.818 30.6134 231.963 29.9019C233.13 29.1793 233.774 27.836 233.241 26.5146C232.662 25.1037 231.172 24.5072 229.724 24.4394C227.258 24.3232 224.766 24.426 222.286 24.4952C224.963 23.0098 227.081 20.6456 228.081 17.6404C228.348 16.8368 228.62 15.8969 228.57 15.0261C228.577 14.9613 228.57 14.9065 228.562 14.8517C228.542 14.7109 228.524 14.5779 228.481 14.4482C228.156 13.1693 226.858 12.5059 225.58 12.7892C224.366 13.0636 223.387 13.9752 222.518 14.8154C221.622 15.6835 220.792 16.6221 220.061 17.6344C219.391 18.5585 218.801 19.543 218.298 20.5633C218.17 19.536 217.971 18.5265 217.715 17.5651C217.421 16.4495 217.02 15.3807 216.169 14.5587C215.261 13.6809 213.897 13.2342 212.662 13.6472C211.496 14.0346 210.765 15.0469 210.565 16.216C210.351 17.4511 210.827 18.597 211.465 19.6245C211.913 20.3435 212.385 21.0512 212.88 21.7557C210.661 21.2695 208.341 21.2126 206.074 21.643C203.782 22.0767 200.943 23.5609 201.55 26.3244Z" fill="#E36025"/>
<path d="M214.543 29.5903C215.699 31.5922 218.438 31.8644 220.064 30.3128C221.039 29.3784 221.435 27.9294 220.978 26.6268C220.275 24.6139 218.009 23.6266 216.115 24.55C214.31 25.4346 213.498 27.7743 214.543 29.5903Z" fill="#F8F2EE"/>
<path d="M36.6955 79.2246C38.6121 78.5502 38.7716 76.3308 38.5718 74.6294C38.3644 72.8745 38.1153 71.1021 37.8915 69.3417C39.9241 71.0582 42.2594 72.4128 44.7892 73.1947C45.9387 73.5473 47.246 73.4571 48.0974 72.5272C48.9311 71.6388 48.798 70.3564 48.0816 69.4521C47.3762 68.5697 46.2925 67.9585 45.3263 67.4009C44.2657 66.7865 43.1563 66.2724 42.0181 65.8325C41.17 65.4999 40.2985 65.225 39.4104 64.9993C40.2739 64.7143 41.1374 64.4294 42.0009 64.1444C43.3225 63.7094 44.653 63.2809 45.9747 62.8458C47.1091 62.476 48.2413 62.091 48.9829 61.1064C50.5722 58.9978 48.6765 56.5219 46.2657 56.6426C45.0344 56.7144 43.908 57.3089 42.8214 57.8512C41.7568 58.3825 40.7074 58.9663 39.6964 59.5992C38.8938 60.0937 38.0955 60.6188 37.318 61.1799C37.537 60.5025 37.699 59.8098 37.8125 59.1083C38.0116 57.8416 38.0557 56.5344 37.8929 55.264C37.7451 54.1006 37.5117 52.8869 36.7525 51.9575C35.9824 51.0062 34.6978 50.5869 33.5659 51.1978C32.3556 51.8665 31.9614 53.2541 32.0559 54.5418C32.2145 56.732 32.5611 58.9192 32.8836 61.102C31.263 58.9069 28.9077 57.2981 26.0944 56.7352C25.3435 56.5914 24.4672 56.4497 23.6845 56.5831C23.6306 56.5907 23.5854 56.6048 23.5326 56.62C23.4115 56.6526 23.2903 56.6852 23.1791 56.732C22.0532 57.1629 21.5958 58.3802 21.9847 59.4708C22.3606 60.5242 23.2766 61.2836 24.1269 61.9665C25.0024 62.6615 25.9397 63.2932 26.9258 63.8246C27.835 64.3123 28.7818 64.7324 29.7477 65.064C28.8371 65.2933 27.9494 65.5739 27.1078 65.9025C26.1328 66.2888 25.2082 66.7538 24.5562 67.5933C23.8589 68.5015 23.6037 69.7605 24.104 70.8042C24.5725 71.7901 25.5586 72.3215 26.642 72.3718C27.7728 72.4232 28.756 71.8721 29.6198 71.1976C30.221 70.7236 30.8113 70.2277 31.3917 69.7177C31.1801 71.734 31.3743 73.7868 32.0023 75.7396C32.6346 77.7231 34.2679 80.0644 36.6955 79.2246Z" fill="#E36025"/>
<path d="M36.167 67.7884C37.4829 66.7994 37.4432 64.8314 36.1958 63.804C35.4532 63.1907 34.3892 63.0345 33.5089 63.4639C32.1415 64.1345 31.6408 65.8197 32.455 67.0874C33.2411 68.2993 34.9729 68.6805 36.167 67.7884Z" fill="#F8F2EE"/>
<path d="M158.709 48.0548C158.598 47.9983 158.487 47.9419 158.383 47.8844C157.251 47.3066 156.068 46.8722 154.848 46.5229C153.605 46.1691 152.303 45.9115 151.017 46.1643C147.897 46.7871 146.455 50.1775 147.831 53.0037C148.993 55.3795 151.518 57.035 153.909 57.9644C154.356 58.1419 154.807 58.2948 155.271 58.4218C155.097 58.5424 154.931 58.6619 154.757 58.7825C152.743 60.2589 150.479 62.1629 150.277 64.8585C150.06 67.7885 152.18 70.4701 155.267 70.1164C158.063 69.7955 159.825 67.3212 161.261 65.133C161.287 65.0894 161.312 65.0457 161.346 65.001C161.349 65.0245 161.354 65.0559 161.365 65.0784C162.186 67.8064 163.721 70.9146 166.54 72.0002C169.267 73.0507 172.792 71.8504 173.541 68.7976C173.976 67.0224 173.146 65.305 172.357 63.7738C171.732 62.556 170.997 61.4019 170.168 60.317C170.858 60.4122 171.55 60.4671 172.255 60.4962C173.751 60.5503 175.23 60.4226 176.703 60.1435C178.115 59.881 179.652 59.5527 180.859 58.7344C182.386 57.7028 183.115 55.8702 182.468 54.095C181.833 52.358 180.32 51.3853 178.622 50.8629C175.711 49.9745 172.496 49.9778 169.545 50.6168C169.452 50.6378 169.352 50.66 169.26 50.681C170.554 48.2804 171.702 45.2356 170.753 42.5577C169.742 39.7281 166.742 38.2596 163.958 39.4677C161.37 40.5924 159.887 43.0114 159.152 45.6538C158.928 46.4382 158.794 47.2419 158.709 48.0548Z" fill="#A1A537"/>
<path d="M167.11 56.2676C167.417 55.2267 167.368 54.1017 166.704 53.1973C166.578 53.0221 166.432 52.875 166.28 52.7537C166.037 52.3939 165.701 52.0973 165.258 51.9332C164.462 51.6427 163.698 51.5236 162.857 51.7509C161.774 52.0539 160.789 52.8715 160.403 53.9486C159.732 55.8036 160.763 57.7632 162.538 58.5031C164.356 59.2537 166.556 58.1228 167.11 56.2676Z" fill="white"/>
<path fill-rule="evenodd" clip-rule="evenodd" d="M7.11659 31.7767C6.34336 29.0038 5.86009 23.9165 1.0894 25.1633C5.22323 24.8428 5.5748 22.2276 5.62563 18.1547C5.62781 17.886 5.23935 16.259 5.70184 16.7072C6.56364 20.2808 6.89261 24.4977 11.1692 23.9993C7.70334 24.8653 6.61154 27.6714 7.11659 31.7767Z" fill="#5F632A"/>
<path fill-rule="evenodd" clip-rule="evenodd" d="M162.117 15.7767C161.342 12.9965 160.859 7.91013 156.088 9.15682C160.222 8.83633 160.582 6.22049 160.625 2.14939C160.627 1.88071 160.239 0.254031 160.702 0.709837C161.564 4.28279 161.892 8.49121 166.168 7.99278C162.702 8.85876 161.611 11.6644 162.117 15.7767Z" fill="#F3C127"/>
<path fill-rule="evenodd" clip-rule="evenodd" d="M86.0067 74.3413C84.6798 69.0614 82.8979 64.2889 75.8339 65.6284C75.3818 65.7403 75.2811 65.44 75.5515 65.402C83.372 65.6413 84.2198 60.3783 83.8633 54.1557C85.3149 59.4907 86.809 64.7713 93.6145 63.9116C87.7236 64.7395 85.0377 68.1001 86.0067 74.3413Z" fill="#E36025"/>
<path d="M244.885 65.9841C246.057 66.9281 247.51 66.1373 248.494 65.3402C249.519 64.4971 250.527 63.6483 251.543 62.7984C251.264 64.7661 251.325 66.7823 251.831 68.6878C252.056 69.5561 252.626 70.3357 253.541 70.5126C254.429 70.677 255.171 70.0825 255.462 69.2703C255.74 68.476 255.697 67.55 255.674 66.7095C255.641 65.7981 255.53 64.8977 255.357 64.006C255.231 63.3327 255.059 62.6739 254.857 62.0274C255.378 62.4603 255.891 62.8865 256.405 63.3205C257.197 63.9885 257.989 64.6486 258.78 65.3087C259.447 65.8739 260.139 66.4436 261.046 66.5169C262.982 66.6787 263.802 64.4904 262.77 63.0205C262.252 62.2737 261.438 61.7934 260.675 61.3303C259.92 60.874 259.145 60.4445 258.352 60.0578C257.721 59.7527 257.084 59.4565 256.434 59.1783C256.94 59.0509 257.439 58.8763 257.927 58.6712C258.793 58.2842 259.63 57.797 260.37 57.1868C261.039 56.6348 261.704 56.003 261.99 55.1513C262.281 54.2829 262.049 53.3111 261.213 52.842C260.324 52.3401 259.303 52.6444 258.534 53.2185C257.218 54.1909 255.989 55.2796 254.743 56.3546C255.492 54.4575 255.575 52.3327 254.825 50.3328C254.623 49.7988 254.371 49.1914 253.969 48.7578C253.948 48.7206 253.92 48.6924 253.893 48.672C253.829 48.6088 253.757 48.5466 253.685 48.4923C252.975 47.9574 252.025 48.1471 251.494 48.8324C250.99 49.4818 250.869 50.3746 250.783 51.1741C250.686 52.0074 250.661 52.8465 250.707 53.6837C250.751 54.4489 250.866 55.2121 251.043 55.9587C250.538 55.4752 250.013 55.0186 249.474 54.6284C248.86 54.1602 248.202 53.7706 247.421 53.6955C246.576 53.6134 245.694 53.9463 245.225 54.6791C244.798 55.3659 244.853 56.2099 245.244 56.9022C245.649 57.6407 246.381 58.0441 247.143 58.3227C247.678 58.5127 248.218 58.6858 248.765 58.85C247.422 59.5208 246.205 60.4632 245.226 61.6373C244.234 62.8214 243.406 64.7857 244.885 65.9841Z" fill="#F3C127"/>
<path d="M252.856 61.2349C254.085 61.6951 255.422 60.8154 255.599 59.5467C255.707 58.781 255.367 57.9972 254.702 57.5902C253.665 56.9632 252.295 57.347 251.774 58.4431C251.271 59.5001 251.738 60.8181 252.856 61.2349Z" fill="#F8F2EE"/>
<path d="M272.464 31.1159C273.629 32.0612 275.083 31.2782 276.074 30.472C277.092 29.6378 278.099 28.7811 279.116 27.939C278.836 29.8991 278.904 31.9145 279.403 33.8213C279.636 34.6886 280.207 35.4762 281.12 35.6453C282.008 35.8097 282.752 35.223 283.042 34.4107C283.32 33.6163 283.276 32.6823 283.246 31.8507C283.214 30.9392 283.103 30.0386 282.937 29.1379C282.804 28.4735 282.639 27.8135 282.437 27.1669C282.95 27.5931 283.471 28.0261 283.985 28.4602C284.776 29.1204 285.561 29.7896 286.352 30.4498C287.027 31.014 287.718 31.5759 288.617 31.6504C290.561 31.8111 291.374 29.6315 290.35 28.1603C289.824 27.4145 289.018 26.9331 288.254 26.4699C287.498 26.0055 286.725 25.5839 285.923 25.1903C285.3 24.884 284.664 24.5957 284.014 24.3175C284.52 24.1901 285.019 24.0154 285.498 23.8036C286.373 23.4234 287.21 22.9361 287.942 22.3269C288.618 21.7659 289.276 21.143 289.569 20.2901C289.86 19.4215 289.619 18.4428 288.783 17.9737C287.903 17.4706 286.883 17.7828 286.114 18.3569C284.798 19.3294 283.561 20.4193 282.323 21.4934C283.063 19.5892 283.154 17.463 282.405 15.4708C282.195 14.9378 281.943 14.3303 281.548 13.8877C281.52 13.8595 281.5 13.8301 281.464 13.803C281.4 13.7397 281.335 13.6765 281.264 13.6222C280.554 13.0871 279.605 13.2848 279.074 13.9701C278.562 14.6207 278.448 15.5046 278.355 16.3132C278.265 17.1376 278.233 17.9858 278.287 18.822C278.331 19.5873 278.445 20.3427 278.614 21.0905C278.117 20.6058 277.586 20.1582 277.053 19.7589C276.433 19.2996 275.773 18.9021 274.993 18.827C274.156 18.7516 273.267 19.0856 272.806 19.8174C272.37 20.5054 272.424 21.3416 272.817 22.0419C273.23 22.7794 273.954 23.1839 274.714 23.4547C275.25 23.6526 275.798 23.8247 276.337 23.9821C274.994 24.653 273.784 25.5944 272.806 26.7686C271.814 27.9607 270.979 29.9264 272.464 31.1159Z" fill="#F8F2EE"/>
<path d="M280.427 26.3699C281.663 26.8292 282.992 25.9507 283.175 24.6737C283.282 23.908 282.944 23.1313 282.272 22.7253C281.242 22.0972 279.873 22.4809 279.353 23.5771C278.849 24.6268 279.309 25.953 280.427 26.3699Z" fill="#E36025"/>
<path d="M118.865 43.803C121.278 42.9529 121.475 40.0901 121.216 37.9143C120.945 35.6444 120.626 33.3811 120.339 31.1135C122.906 33.3244 125.85 35.0828 129.043 36.0875C130.488 36.5473 132.144 36.4343 133.208 35.2467C134.253 34.1014 134.077 32.457 133.172 31.2905C132.286 30.1453 130.922 29.3627 129.692 28.641C128.358 27.8462 126.963 27.1797 125.527 26.6148C124.449 26.1834 123.358 25.8256 122.236 25.5281C123.321 25.168 124.406 24.8079 125.499 24.4466C127.164 23.8932 128.83 23.3475 130.503 22.793C131.926 22.3134 133.356 21.825 134.283 20.5607C136.277 17.8606 133.88 14.6675 130.842 14.823C129.292 14.9051 127.876 15.6631 126.514 16.3497C125.168 17.042 123.853 17.7859 122.579 18.5958C121.564 19.2336 120.562 19.9015 119.588 20.6054C119.861 19.7444 120.067 18.8529 120.201 17.9556C120.445 16.3241 120.494 14.6482 120.295 13.007C120.1 11.5091 119.796 9.96253 118.838 8.75553C117.86 7.52721 116.254 6.98625 114.82 7.77882C113.298 8.6236 112.808 10.4095 112.937 12.0605C113.137 14.8835 113.586 17.6874 113.997 20.4967C111.951 17.6696 108.977 15.5879 105.429 14.8647C104.487 14.6697 103.381 14.4896 102.395 14.6601C102.326 14.6699 102.265 14.6864 102.197 14.704C102.044 14.7414 101.9 14.7856 101.759 14.8454C100.346 15.3954 99.7694 16.9618 100.267 18.3694C100.74 19.7164 101.896 20.7039 102.973 21.5749C104.077 22.4738 105.257 23.2904 106.505 23.9775C107.65 24.6072 108.846 25.1498 110.066 25.5774C108.923 25.8657 107.799 26.2313 106.738 26.6441C105.513 27.1356 104.353 27.7459 103.534 28.8194C102.663 29.972 102.338 31.5909 102.969 32.9397C103.565 34.2057 104.813 34.8928 106.172 34.9653C107.601 35.036 108.836 34.3354 109.929 33.471C110.687 32.8613 111.418 32.2236 112.146 31.5702C111.895 34.161 112.148 36.8009 112.943 39.3166C113.749 41.8547 115.815 44.8787 118.865 43.803Z" fill="#F8F2EE"/>
<path d="M119.117 29.0185C121.227 27.4425 121.155 24.2919 119.173 22.6555C117.981 21.6706 116.278 21.41 114.864 22.1002C112.676 23.1788 111.872 25.8762 113.185 27.9033C114.441 29.8367 117.203 30.4484 119.117 29.0185Z" fill="#E36025"/>
<path d="M54.8879 21.9836C56.0528 22.9287 57.5133 22.1369 58.4968 21.3398C59.5149 20.5057 60.5218 19.6491 61.5376 18.7992C61.2662 20.7658 61.3273 22.782 61.8254 24.6886C62.0584 25.5558 62.6285 26.3354 63.5425 26.5123C64.4309 26.6767 65.173 26.0823 65.4637 25.2701C65.7411 24.4758 65.6982 23.5498 65.6676 22.7104C65.6437 21.8058 65.5241 20.8986 65.3589 20.0058C65.2248 19.3336 65.0606 18.6737 64.8586 18.0272C65.3799 18.4601 65.8923 18.8863 66.4058 19.3203C67.1983 19.9883 67.9819 20.6496 68.7732 21.3097C69.4479 21.8738 70.1393 22.4435 71.0389 22.5179C72.9826 22.6787 73.7946 20.4915 72.7702 19.0204C72.2446 18.2747 71.4398 17.8013 70.675 17.3302C69.9202 16.8739 69.1453 16.4444 68.3527 16.0577C67.7223 15.7525 67.0853 15.4564 66.436 15.186C66.941 15.0508 67.4415 14.884 67.9276 14.6711C68.7952 14.292 69.6306 13.797 70.3705 13.1868C71.0392 12.6348 71.6967 12.004 71.9897 11.1513C72.2805 10.2829 72.0486 9.31107 71.2127 8.842C70.3244 8.3401 69.3045 8.65217 68.5346 9.21837C67.2185 10.1908 65.9835 11.2884 64.7441 12.3545C65.4936 10.4573 65.576 8.3325 64.8266 6.33265C64.6256 5.80647 64.3646 5.19231 63.9701 4.75762C63.9423 4.72939 63.9223 4.70006 63.8868 4.67292C63.8301 4.60856 63.7578 4.5464 63.6867 4.49212C62.9764 3.95718 62.0266 4.14691 61.4958 4.83218C60.9928 5.48943 60.871 6.37432 60.7771 7.17495C60.6877 8.0071 60.6627 8.84625 60.7089 9.68343C60.753 10.4486 60.8682 11.2118 61.0367 11.9595C60.5399 11.4749 60.0164 11.0262 59.4762 10.628C58.856 10.1688 58.2046 9.77024 57.4239 9.69514C56.5788 9.61304 55.689 9.94701 55.2293 10.6866C54.7941 11.3745 54.8481 12.2105 55.248 12.9096C55.6524 13.6402 56.3761 14.0447 57.1454 14.3223C57.6724 14.5134 58.2206 14.6854 58.7598 14.8507C57.4172 15.5215 56.2078 16.4628 55.2296 17.6368C54.237 18.8209 53.4018 20.7863 54.8879 21.9836Z" fill="#F3C127"/>
<path d="M62.8577 17.2338C64.0859 17.6943 65.4158 16.8227 65.5994 15.5453C65.7067 14.7793 65.3677 14.0023 64.7019 13.5879C63.6652 12.9606 62.2973 13.3516 61.7771 14.4481C61.2726 15.4982 61.7332 16.8249 62.8577 17.2338Z" fill="#F8F2EE"/>
</svg>
