<svg width="561" height="972" viewBox="0 0 561 972" fill="none" xmlns="http://www.w3.org/2000/svg">
<path d="M212.842 686.249C213.557 684.023 216.105 683.769 218.069 683.945C220.094 684.128 222.14 684.358 224.172 684.56C222.134 682.276 220.501 679.633 219.522 676.748C219.08 675.437 219.142 673.93 220.185 672.922C221.18 671.934 222.659 672.047 223.722 672.842C224.76 673.626 225.497 674.853 226.169 675.946C226.909 677.147 227.536 678.407 228.078 679.702C228.488 680.667 228.831 681.661 229.119 682.675C229.42 681.673 229.72 680.67 230.02 679.668C230.479 678.134 230.93 676.59 231.388 675.056C231.777 673.739 232.184 672.425 233.293 671.541C235.669 669.646 238.577 671.748 238.514 674.525C238.471 675.943 237.823 677.258 237.233 678.525C236.656 679.766 236.018 680.992 235.322 682.175C234.778 683.114 234.2 684.049 233.579 684.961C234.351 684.687 235.143 684.479 235.946 684.326C237.397 684.057 238.899 683.965 240.366 684.112C241.709 684.245 243.112 684.475 244.205 685.319C245.324 686.174 245.847 687.638 245.18 688.96C244.449 690.373 242.866 690.871 241.382 690.803C238.857 690.69 236.33 690.361 233.809 690.059C236.386 691.853 238.311 694.512 239.048 697.73C239.237 698.589 239.428 699.592 239.299 700.497C239.292 700.559 239.277 700.612 239.262 700.673C239.228 700.813 239.194 700.954 239.144 701.083C238.684 702.392 237.298 702.957 236.032 702.544C234.808 702.145 233.905 701.115 233.093 700.159C232.266 699.174 231.509 698.116 230.867 696.998C230.277 695.968 229.764 694.892 229.351 693.792C229.117 694.846 228.822 695.876 228.471 696.855C228.057 697.989 227.552 699.067 226.607 699.844C225.584 700.675 224.144 701.008 222.928 700.466C221.779 699.958 221.136 698.841 221.044 697.596C220.949 696.297 221.552 695.148 222.3 694.134C222.826 693.427 223.378 692.732 223.946 692.048C221.634 692.356 219.266 692.197 217 691.537C214.698 690.873 211.953 689.068 212.842 686.249Z" fill="#E36025"/>
<path d="M226.014 686.495C227.11 684.95 229.375 684.933 230.597 686.335C231.326 687.17 231.539 688.389 231.073 689.415C230.345 691.009 228.423 691.639 226.938 690.742C225.519 689.877 225.026 687.897 226.014 686.495Z" fill="#F8F2EE"/>
<path d="M280.752 762.193C280.82 762.32 280.889 762.446 280.958 762.564C281.659 763.847 282.196 765.195 282.636 766.586C283.083 768.005 283.42 769.495 283.17 770.982C282.553 774.591 278.699 776.357 275.404 774.864C272.635 773.603 270.65 770.751 269.505 768.029C269.287 767.521 269.097 767.007 268.936 766.478C268.803 766.682 268.671 766.877 268.537 767.081C266.903 769.444 264.785 772.108 261.69 772.426C258.327 772.769 255.175 770.415 255.484 766.853C255.765 763.626 258.555 761.521 261.026 759.8C261.076 759.77 261.125 759.739 261.175 759.699C261.148 759.696 261.112 759.691 261.086 759.679C257.922 758.821 254.298 757.154 252.96 753.946C251.665 750.842 252.933 746.75 256.421 745.791C258.449 745.235 260.451 746.135 262.238 746.994C263.658 747.674 265.009 748.483 266.283 749.402C266.152 748.611 266.067 747.817 266.011 747.007C265.901 745.288 266.001 743.583 266.276 741.88C266.533 740.248 266.861 738.468 267.765 737.055C268.903 735.266 270.987 734.369 273.05 735.057C275.068 735.731 276.235 737.442 276.89 739.378C278.004 742.698 278.102 746.396 277.461 749.811C277.44 749.918 277.417 750.034 277.396 750.141C280.116 748.576 283.582 747.159 286.693 748.166C289.98 749.239 291.764 752.644 290.463 755.884C289.251 758.896 286.516 760.679 283.5 761.608C282.604 761.891 281.684 762.07 280.752 762.193Z" fill="#A1A537"/>
<path d="M271.038 752.791C272.226 752.405 273.521 752.426 274.583 753.161C274.788 753.3 274.962 753.464 275.106 753.634C275.528 753.903 275.88 754.28 276.083 754.784C276.442 755.691 276.603 756.566 276.369 757.54C276.054 758.795 275.145 759.954 273.919 760.432C271.806 761.263 269.519 760.139 268.612 758.121C267.691 756.054 268.922 753.487 271.038 752.791Z" fill="white"/>
<path fill-rule="evenodd" clip-rule="evenodd" d="M210.661 746.757C213.875 747.559 219.742 747.953 218.459 753.48C218.696 748.715 221.693 748.228 226.377 748.04C226.686 748.029 228.57 748.424 228.039 747.906C223.902 747.028 219.04 746.784 219.478 741.849C218.592 745.863 215.399 747.208 210.661 746.757Z" fill="#5F632A"/>
<path fill-rule="evenodd" clip-rule="evenodd" d="M250.091 642.052C253.313 642.854 259.179 643.249 257.897 648.776C258.134 644.011 261.132 643.514 265.813 643.335C266.122 643.324 268.006 643.719 267.467 643.201C263.329 642.323 258.478 642.079 258.916 637.144C258.03 641.158 254.837 642.503 250.091 642.052Z" fill="#F3C127"/>
<path fill-rule="evenodd" clip-rule="evenodd" d="M63.8131 690.06C69.9286 691.419 75.4748 693.317 74.1582 701.485C74.0438 702.009 74.3924 702.115 74.4275 701.803C73.9042 692.815 79.9312 691.672 87.1001 691.885C80.9174 690.385 74.7959 688.834 75.5688 680.978C74.8034 687.781 71.023 690.977 63.8131 690.06Z" fill="#E36025"/>
<path d="M233.633 26.5774C248.624 35.7885 266.577 43.7933 287.34 50.7213C312.901 59.243 340.868 64.507 369.941 74.2488C426.55 93.4127 472.489 146.918 487.071 227.651C494.962 271.422 495.173 318.242 487.055 363.07C479.369 405.281 464.883 446.139 442.193 475.92C419.589 505.591 390.194 522.611 360.548 534.627C331.688 546.318 301.724 553.523 273.696 568.232C270.457 569.938 267.236 571.739 264.056 573.654C228.953 594.743 200.925 630.906 182.692 678.318C144.069 778.727 199.567 880.048 236.818 933.859L268.059 933.763C223.416 874.758 163.802 768.153 211.67 663.304C231.606 619.612 261.695 591.388 296.228 574.964C326.2 560.704 357.729 554.234 388.421 543.409C419.105 532.582 449.836 516.693 473.411 486.93C497.103 457.014 511.803 415.236 521.359 372.42C531.436 327.253 536.394 279.127 531.468 232.262C521.226 134.832 467.217 71.5845 401.861 49.2642C376.888 40.7261 353.536 33.3053 332.252 26.2822" fill="#5F632A"/>
<path d="M174.913 26.369C192.252 49.8351 216.151 66.9163 248.824 77.7911C276.82 87.1056 306.985 89.5198 337.346 99.4852C385.303 115.479 424.444 159.251 442.225 223.263C453.557 264.034 458.509 309.373 452.35 353.846C446.536 395.417 432.265 435.341 410.546 464.975C388.882 494.522 360.788 512.795 332.117 525.845C301.853 539.623 270.041 547.686 241.064 565.657C237.704 567.743 234.393 569.963 231.142 572.308C195.407 598.047 169.088 641.597 152.861 693.2C123.38 787.002 171.328 883.233 202.152 933.709L236.174 933.617C198.849 879.826 143.221 778.545 181.888 678.202C200.142 630.821 228.211 594.685 263.374 573.618C266.559 571.704 269.777 569.905 273.03 568.201C301.106 553.508 331.124 546.315 360.044 534.639C389.741 522.638 419.177 505.634 441.816 475.977C464.538 446.227 479.04 405.395 486.729 363.21C494.851 318.399 494.625 271.614 486.708 227.865C472.085 147.181 426.039 93.683 369.319 74.514C340.189 64.7695 313.421 58.8309 287.811 50.3068C267.007 43.377 249.812 36.2299 234.791 27.0197" fill="#A1A537"/>
<path d="M134.326 26.3199C145.93 61.8465 170.151 90.3475 210.515 103.811C240.81 113.906 273.025 113.446 304.536 123.623C343.619 136.448 377.008 169.974 396.625 217.788C412.025 255.326 420.976 299.485 416.767 343.629C412.826 384.587 398.802 423.606 378.126 453.109C357.482 482.571 330.841 502.216 303.253 516.222C271.74 532.214 238.178 541.078 208.378 562.319C204.93 564.78 201.543 567.421 198.233 570.2C161.998 600.618 136.736 651.058 123.319 707.429C103.315 791.472 136.831 882.032 164.656 933.014L201.346 932.901C170.621 882.436 122.834 786.222 152.264 692.412C168.462 640.806 194.722 597.257 230.368 571.498C233.612 569.152 236.914 566.931 240.266 564.844C269.169 546.864 300.896 538.792 331.091 525.006C359.678 511.946 387.701 493.665 409.315 464.111C430.985 434.472 445.23 394.545 451.041 352.972C457.197 308.498 452.272 263.162 440.983 222.395C423.27 158.39 384.25 114.631 336.428 98.6518C306.154 88.696 276.071 86.2912 248.155 76.9854C214.865 65.8843 190.687 48.2883 174.911 26.1968" fill="#E36025"/>
<path d="M101.358 26.9439C107.425 75.6867 128.931 116.223 173.908 131.218C206.597 142.109 240.977 138.784 273.738 149.197C304.115 158.856 332.851 180.813 353.421 213.821C373.999 246.829 385.915 291.143 383.662 334.982C381.599 375.35 367.777 413.487 348.1 442.864C328.412 472.249 303.152 493.363 276.518 508.238C243.706 526.569 208.246 536.078 177.534 560.612C135.196 594.423 105.134 656.018 95.3466 723.332C85.1072 793.766 95.4765 876.619 127.436 934.15L165.689 934.037C137.844 883.027 104.302 792.416 124.319 708.318C137.744 651.925 163.023 601.458 199.283 571.023C202.597 568.234 205.985 565.6 209.436 563.138C239.257 541.887 272.843 533.018 304.378 517.018C331.984 503.014 358.645 483.349 379.303 453.872C399.993 424.352 414.026 385.313 417.97 344.332C422.181 300.164 413.222 255.981 397.812 218.421C378.18 170.572 344.765 137.035 305.654 124.203C274.12 114.02 241.883 114.48 211.565 104.378C171.173 90.9064 146.933 62.3892 135.32 26.8428" fill="#F3C127"/>
<path d="M259.562 141.927C258.437 140.616 259.292 138.919 260.188 137.754C261.115 136.557 262.069 135.371 263.005 134.175C260.759 134.559 258.439 134.544 256.23 134.031C255.225 133.791 254.301 133.159 254.077 132.114C253.86 131.097 254.511 130.223 255.436 129.863C256.341 129.519 257.417 129.54 258.374 129.547C259.424 129.556 260.463 129.655 261.505 129.818C262.273 129.95 263.038 130.118 263.788 130.33C263.281 129.754 262.767 129.168 262.251 128.591C261.467 127.701 260.672 126.82 259.887 125.93C259.217 125.172 258.549 124.396 258.434 123.363C258.188 121.132 260.669 120.128 262.394 121.259C263.269 121.84 263.848 122.752 264.405 123.616C264.963 124.471 265.473 125.348 265.951 126.257C266.323 126.964 266.675 127.686 267.015 128.426C267.146 127.84 267.331 127.259 267.559 126.702C267.969 125.683 268.503 124.705 269.18 123.844C269.804 123.049 270.5 122.272 271.472 121.908C272.462 121.546 273.595 121.791 274.161 122.738C274.768 123.735 274.441 124.918 273.805 125.821C272.728 127.366 271.514 128.823 270.318 130.281C272.484 129.369 274.927 129.198 277.243 129.995C277.862 130.22 278.569 130.491 279.091 130.932C279.124 130.963 279.159 130.985 279.191 131.025C279.266 131.097 279.34 131.169 279.405 131.249C280.043 132.049 279.846 133.147 279.074 133.779C278.342 134.389 277.329 134.548 276.402 134.681C275.457 134.811 274.482 134.874 273.518 134.839C272.637 134.812 271.764 134.705 270.899 134.535C271.472 135.091 272.004 135.688 272.48 136.288C273.028 136.987 273.506 137.732 273.617 138.628C273.73 139.588 273.374 140.622 272.547 141.175C271.77 141.698 270.806 141.662 269.988 141.233C269.127 140.781 268.639 139.962 268.303 139.095C268.058 138.485 267.843 137.86 267.645 137.246C266.916 138.812 265.871 140.233 264.552 141.395C263.212 142.574 260.977 143.597 259.562 141.927Z" fill="#F8F2EE"/>
<path d="M264.768 132.616C264.201 131.21 265.169 129.653 266.632 129.401C267.51 129.254 268.414 129.619 268.902 130.379C269.657 131.543 269.259 133.13 268.015 133.763C266.824 134.377 265.283 133.889 264.768 132.616Z" fill="#E36025"/>
<path d="M136.397 802.122C137.298 799.32 140.585 799.003 143.096 799.231C145.716 799.472 148.329 799.766 150.947 800.024C148.322 797.142 146.206 793.811 144.949 790.17C144.374 788.522 144.452 786.614 145.784 785.353C147.068 784.114 148.965 784.264 150.336 785.268C151.681 786.252 152.625 787.796 153.494 789.187C154.45 790.696 155.261 792.28 155.957 793.913C156.487 795.14 156.933 796.384 157.311 797.665C157.691 796.406 158.071 795.146 158.452 793.878C159.035 791.945 159.61 790.011 160.195 788.069C160.701 786.417 161.218 784.756 162.643 783.651C165.685 781.271 169.434 783.926 169.352 787.426C169.307 789.212 168.48 790.864 167.733 792.453C166.979 794.023 166.166 795.56 165.274 797.051C164.573 798.238 163.836 799.412 163.058 800.555C164.039 800.213 165.058 799.948 166.086 799.765C167.955 799.433 169.881 799.324 171.775 799.501C173.505 799.677 175.293 799.978 176.712 801.042C178.156 802.127 178.829 803.957 177.963 805.632C177.04 807.409 175.001 808.03 173.098 807.934C169.844 807.794 166.605 807.366 163.36 806.983C166.677 809.246 169.166 812.601 170.11 816.659C170.364 817.737 170.607 819.003 170.442 820.142C170.433 820.222 170.416 820.293 170.398 820.372C170.359 820.549 170.313 820.715 170.249 820.88C169.661 822.523 167.878 823.236 166.243 822.708C164.678 822.207 163.506 820.908 162.47 819.697C161.401 818.456 160.424 817.125 159.594 815.711C158.833 814.414 158.171 813.055 157.641 811.666C157.345 812.989 156.96 814.293 156.519 815.528C155.993 816.952 155.327 818.306 154.119 819.282C152.82 820.321 150.969 820.745 149.397 820.062C147.922 819.417 147.092 818.003 146.965 816.442C146.839 814.8 147.605 813.358 148.565 812.073C149.242 811.182 149.953 810.321 150.681 809.463C147.709 809.834 144.664 809.627 141.745 808.792C138.8 807.945 135.256 805.665 136.397 802.122Z" fill="#F8F2EE"/>
<path d="M153.395 801.363C155.141 798.886 158.767 798.869 160.713 801.097C161.883 802.437 162.237 804.387 161.488 806.036C160.317 808.587 157.24 809.597 154.866 808.152C152.602 806.768 151.811 803.61 153.395 801.363Z" fill="#E36025"/>
<path d="M315.677 610.105C314.553 608.795 315.417 607.09 316.303 605.934C317.23 604.736 318.183 603.551 319.129 602.355C316.875 602.73 314.554 602.724 312.345 602.211C311.34 601.971 310.425 601.34 310.193 600.294C309.975 599.277 310.636 598.405 311.561 598.045C312.466 597.7 313.532 597.72 314.499 597.729C315.54 597.728 316.587 597.836 317.619 597.998C318.397 598.131 319.161 598.299 319.911 598.511C319.397 597.925 318.89 597.349 318.375 596.772C317.581 595.882 316.796 595.001 316.011 594.112C315.341 593.354 314.664 592.577 314.55 591.544C314.303 589.314 316.793 588.31 318.518 589.442C319.392 590.023 319.962 590.934 320.528 591.798C321.077 592.652 321.596 593.53 322.066 594.429C322.437 595.145 322.798 595.868 323.129 596.606C323.269 596.021 323.445 595.44 323.674 594.874C324.083 593.864 324.626 592.888 325.304 592.017C325.918 591.23 326.623 590.454 327.594 590.09C328.584 589.728 329.709 589.964 330.275 590.911C330.881 591.916 330.554 593.099 329.927 594.003C328.85 595.548 327.627 597.003 326.44 598.463C328.599 597.54 331.04 597.378 333.364 598.177C333.976 598.391 334.691 598.672 335.203 599.112C335.236 599.143 335.271 599.165 335.303 599.205C335.379 599.268 335.453 599.349 335.517 599.429C336.155 600.229 335.967 601.328 335.196 601.96C334.456 602.56 333.442 602.728 332.524 602.861C331.569 602.991 330.605 603.046 329.641 603.019C328.759 602.993 327.877 602.885 327.012 602.714C327.585 603.271 328.118 603.858 328.593 604.467C329.141 605.166 329.62 605.903 329.731 606.798C329.853 607.768 329.497 608.802 328.661 609.354C327.883 609.877 326.92 609.841 326.103 609.403C325.25 608.961 324.761 608.142 324.418 607.265C324.181 606.665 323.966 606.04 323.759 605.425C323.03 606.991 321.985 608.412 320.666 609.574C319.335 610.754 317.101 611.777 315.677 610.105Z" fill="#F3C127"/>
<path d="M320.887 600.787C320.318 599.389 321.278 597.831 322.742 597.579C323.619 597.432 324.524 597.797 325.022 598.55C325.776 599.722 325.37 601.308 324.125 601.941C322.933 602.555 321.393 602.067 320.887 600.787Z" fill="#F8F2EE"/>
</svg>
