<svg width="54" height="55" viewBox="0 0 54 55" fill="none" xmlns="http://www.w3.org/2000/svg">
<path fill-rule="evenodd" clip-rule="evenodd" d="M11.5765 0C12.3227 7.3954 13.7404 14.17 22.9931 13.7016C23.59 13.6472 23.6646 14.0611 23.3129 14.0611C13.378 12.2531 11.3526 19.2128 10.6917 27.6756C9.79631 20.193 8.83693 12.7759 0 12.6452C7.66436 12.656 11.6937 8.62615 11.5765 0Z" fill="#E36025"/>
<path fill-rule="evenodd" clip-rule="evenodd" d="M41.6712 8C42.0367 11.6229 42.7313 14.9417 47.264 14.7123C47.5565 14.6856 47.593 14.8883 47.4207 14.8883C42.5537 14.0026 41.5615 17.4121 41.2377 21.5579C40.7991 17.8923 40.3291 14.2587 36 14.1947C39.7547 14.2 41.7286 12.2258 41.6712 8Z" fill="#E36025"/>
<path fill-rule="evenodd" clip-rule="evenodd" d="M46.1475 37C46.6082 41.566 47.4836 45.7488 53.1963 45.4596C53.5649 45.426 53.6109 45.6815 53.3937 45.6815C47.2598 44.5652 46.0093 48.8623 45.6012 54.0873C45.0484 49.4675 44.4561 44.888 39 44.8073C43.7321 44.814 46.2199 42.3259 46.1475 37Z" fill="#E36025"/>
</svg>
