<svg width="940" height="378" viewBox="0 0 940 378" fill="none" xmlns="http://www.w3.org/2000/svg">
<path d="M680.55 156.326C681.034 158.508 683.499 158.967 685.416 158.969C687.412 158.968 689.411 158.927 691.405 158.91C689.221 160.908 687.389 163.288 686.179 165.956C685.621 167.159 685.549 168.606 686.465 169.658C687.353 170.682 688.795 170.703 689.904 170.028C690.984 169.374 691.815 168.268 692.574 167.283C693.401 166.21 694.121 165.063 694.77 163.871C695.253 162.989 695.681 162.067 696.058 161.128C696.252 162.106 696.447 163.092 696.649 164.069C696.95 165.575 697.25 167.081 697.559 168.586C697.82 169.866 698.098 171.159 699.095 172.096C701.228 174.102 704.248 172.353 704.433 169.702C704.526 168.349 704.027 167.038 703.568 165.786C703.111 164.55 702.608 163.328 702.037 162.139C701.589 161.197 701.11 160.259 700.6 159.333C701.325 159.662 702.074 159.932 702.839 160.143C704.235 160.522 705.68 160.742 707.125 160.73C708.441 160.713 709.817 160.615 710.962 159.903C712.13 159.181 712.774 157.837 712.24 156.516C711.662 155.105 710.172 154.509 708.723 154.441C706.258 154.325 703.766 154.427 701.286 154.497C703.963 153.011 706.08 150.647 707.081 147.642C707.348 146.838 707.62 145.898 707.57 145.028C707.577 144.963 707.569 144.908 707.562 144.853C707.542 144.712 707.523 144.579 707.481 144.45C707.156 143.171 705.858 142.507 704.58 142.791C703.366 143.065 702.386 143.977 701.518 144.817C700.622 145.685 699.791 146.624 699.061 147.636C698.39 148.56 697.801 149.544 697.298 150.565C697.17 149.537 696.971 148.528 696.715 147.567C696.421 146.451 696.02 145.382 695.169 144.56C694.261 143.682 692.897 143.236 691.661 143.649C690.495 144.036 689.765 145.048 689.565 146.217C689.351 147.453 689.827 148.598 690.464 149.626C690.913 150.345 691.384 151.053 691.88 151.757C689.661 151.271 687.341 151.214 685.073 151.644C682.782 152.078 679.943 153.562 680.55 156.326" fill="#E36025"/>
<path d="M693.542 159.592C694.698 161.594 697.438 161.866 699.063 160.314C700.038 159.38 700.435 157.931 699.977 156.628C699.274 154.615 697.009 153.628 695.115 154.551C693.31 155.436 692.498 157.776 693.542 159.592" fill="#F8F2EE"/>
<path d="M319.696 197.227C321.612 196.552 321.772 194.333 321.572 192.631C321.364 190.877 321.115 189.104 320.891 187.344C322.924 189.06 325.259 190.415 327.789 191.197C328.939 191.549 330.246 191.459 331.097 190.529C331.931 189.641 331.798 188.359 331.082 187.454C330.376 186.572 329.292 185.961 328.326 185.403C327.266 184.789 326.156 184.275 325.018 183.835C324.17 183.502 323.299 183.227 322.41 183.001C323.274 182.716 324.137 182.431 325.001 182.146C326.323 181.711 327.653 181.283 328.975 180.848C330.109 180.478 331.241 180.093 331.983 179.109C333.572 177 331.676 174.524 329.266 174.645C328.034 174.716 326.908 175.311 325.821 175.853C324.757 176.385 323.707 176.968 322.696 177.601C321.894 178.096 321.096 178.621 320.318 179.182C320.537 178.505 320.699 177.812 320.813 177.11C321.012 175.844 321.056 174.536 320.893 173.266C320.745 172.103 320.512 170.889 319.753 169.96C318.982 169.008 317.698 168.589 316.566 169.2C315.356 169.869 314.961 171.256 315.056 172.544C315.214 174.734 315.561 176.921 315.884 179.104C314.263 176.909 311.908 175.3 309.094 174.737C308.344 174.594 307.467 174.452 306.685 174.585C306.631 174.593 306.585 174.607 306.533 174.622C306.411 174.655 306.29 174.687 306.179 174.734C305.053 175.165 304.596 176.382 304.985 177.473C305.361 178.526 306.277 179.286 307.127 179.969C308.002 180.664 308.94 181.295 309.926 181.827C310.835 182.314 311.782 182.734 312.748 183.066C311.837 183.295 310.949 183.576 310.108 183.905C309.133 184.291 308.208 184.756 307.556 185.595C306.859 186.504 306.604 187.763 307.104 188.806C307.572 189.792 308.559 190.324 309.642 190.374C310.773 190.425 311.756 189.874 312.62 189.2C313.221 188.726 313.811 188.23 314.392 187.72C314.18 189.736 314.374 191.789 315.002 193.742C315.635 195.725 317.268 198.066 319.696 197.227" fill="#E36025"/>
<path d="M319.167 185.79C320.483 184.801 320.443 182.833 319.196 181.806C318.453 181.193 317.389 181.037 316.509 181.466C315.142 182.137 314.641 183.822 315.455 185.089C316.241 186.301 317.973 186.683 319.167 185.79" fill="#F8F2EE"/>
<path d="M834.709 62.0559C834.598 61.9994 834.487 61.943 834.383 61.8855C833.251 61.3077 832.068 60.8733 830.848 60.524C829.605 60.1702 828.303 59.9126 827.017 60.1654C823.897 60.7882 822.455 64.1786 823.831 67.0048C824.993 69.3806 827.518 71.0361 829.909 71.9655C830.356 72.143 830.807 72.2959 831.271 72.4229C831.097 72.5435 830.931 72.663 830.757 72.7836C828.743 74.26 826.479 76.164 826.277 78.8596C826.06 81.7896 828.18 84.4712 831.267 84.1175C834.063 83.7965 835.825 81.3223 837.261 79.1341C837.287 79.0905 837.312 79.0468 837.346 79.0021C837.349 79.0256 837.354 79.057 837.365 79.0795C838.186 81.8075 839.721 84.9157 842.54 86.0013C845.267 87.0518 848.792 85.8515 849.541 82.7987C849.976 81.0235 849.146 79.3061 848.357 77.7749C847.732 76.5571 846.997 75.403 846.168 74.3181C846.858 74.4133 847.55 74.4682 848.255 74.4973C849.751 74.5514 851.23 74.4237 852.703 74.1446C854.115 73.8821 855.652 73.5538 856.859 72.7355C858.386 71.7039 859.115 69.8713 858.468 68.0961C857.833 66.3591 856.32 65.3864 854.622 64.864C851.711 63.9756 848.496 63.9789 845.545 64.6179C845.452 64.6389 845.352 64.6611 845.26 64.6821C846.554 62.2815 847.702 59.2367 846.753 56.5588C845.742 53.7292 842.742 52.2607 839.958 53.4688C837.37 54.5935 835.887 57.0125 835.152 59.6549C834.928 60.4393 834.794 61.243 834.709 62.0559" fill="#A1A537"/>
<path d="M843.11 70.2687C843.417 69.2278 843.368 68.1028 842.704 67.1984C842.578 67.0232 842.432 66.8761 842.28 66.7548C842.037 66.395 841.701 66.0984 841.258 65.9343C840.462 65.6438 839.698 65.5247 838.857 65.752C837.774 66.055 836.789 66.8726 836.403 67.9497C835.732 69.8047 836.763 71.7643 838.538 72.5042C840.356 73.2548 842.556 72.1239 843.11 70.2687" fill="white"/>
<path fill-rule="evenodd" clip-rule="evenodd" d="M20.1166 37.778C19.3434 35.0051 18.8601 29.9178 14.0894 31.1646C18.2232 30.8442 18.5748 28.229 18.6256 24.1561C18.6278 23.8873 18.2394 22.2604 18.7018 22.7085C19.5636 26.2821 19.8926 30.499 24.1692 30.0006C20.7033 30.8667 19.6115 33.6727 20.1166 37.778" fill="#5F632A"/>
<path fill-rule="evenodd" clip-rule="evenodd" d="M384.117 69.7788C383.343 67.0059 382.86 61.9185 378.089 63.1653C382.223 62.8449 382.575 60.2297 382.626 56.1568C382.628 55.8881 382.239 54.2611 382.702 54.7093C383.564 58.2828 383.893 62.4997 388.169 62.0013C384.703 62.8674 383.612 65.6734 384.117 69.7788" fill="#5F632A"/>
<path fill-rule="evenodd" clip-rule="evenodd" d="M421.117 140.779C420.342 137.999 419.859 132.912 415.088 134.159C419.222 133.839 419.582 131.223 419.625 127.152C419.627 126.883 419.239 125.256 419.702 125.712C420.564 129.285 420.892 133.494 425.168 132.995C421.702 133.861 420.611 136.667 421.117 140.779" fill="#F3C127"/>
<path fill-rule="evenodd" clip-rule="evenodd" d="M173.006 108.342C171.68 103.062 169.898 98.2899 162.834 99.6294C162.382 99.7413 162.281 99.441 162.551 99.403C170.372 99.6423 171.22 94.3792 170.863 88.1567C172.315 93.4917 173.809 98.7722 180.614 97.9125C174.723 98.7405 172.037 102.101 173.006 108.342" fill="#E36025"/>
<path d="M641.885 60.9849C643.057 61.9289 644.51 61.1381 645.494 60.341C646.519 59.4979 647.527 58.6492 648.543 57.7993C648.264 59.7669 648.325 61.7832 648.831 63.6887C649.056 64.557 649.626 65.3366 650.541 65.5134C651.429 65.6778 652.171 65.0834 652.462 64.2711C652.74 63.4769 652.697 62.5508 652.674 61.7103C652.641 60.799 652.53 59.8985 652.357 59.0068C652.231 58.3336 652.059 57.6748 651.857 57.0282C652.378 57.4612 652.891 57.8873 653.405 58.3213C654.197 58.9893 654.989 59.6495 655.78 60.3096C656.447 60.8747 657.139 61.4444 658.046 61.5178C659.982 61.6795 660.802 59.4913 659.77 58.0213C659.252 57.2745 658.438 56.7943 657.675 56.3312C656.92 55.8748 656.145 55.4454 655.352 55.0586C654.721 54.7535 654.084 54.4574 653.434 54.1792C653.94 54.0518 654.439 53.8771 654.927 53.6721C655.793 53.2851 656.63 52.7979 657.37 52.1877C658.039 51.6357 658.704 51.0038 658.99 50.1522C659.281 49.2837 659.049 48.3119 658.213 47.8429C657.324 47.341 656.303 47.6452 655.534 48.2193C654.218 49.1917 652.989 50.2804 651.743 51.3555C652.492 49.4583 652.575 47.3335 651.825 45.3337C651.623 44.7996 651.371 44.1922 650.969 43.7587C650.948 43.7215 650.92 43.6932 650.893 43.6729C650.829 43.6096 650.757 43.5474 650.685 43.4932C649.975 42.9582 649.025 43.148 648.494 43.8333C647.99 44.4827 647.869 45.3754 647.783 46.175C647.686 47.0082 647.661 47.8474 647.707 48.6846C647.751 49.4497 647.866 50.213 648.043 50.9595C647.538 50.476 647.013 50.0195 646.474 49.6292C645.86 49.161 645.202 48.7714 644.421 48.6964C643.576 48.6143 642.694 48.9472 642.225 49.68C641.798 50.3668 641.853 51.2107 642.244 51.903C642.649 52.6415 643.381 53.0449 644.143 53.3235C644.678 53.5135 645.218 53.6867 645.765 53.8508C644.422 54.5216 643.205 55.4641 642.226 56.6381C641.234 57.8222 640.406 59.7866 641.885 60.9849" fill="#F3C127"/>
<path d="M649.856 56.2357C651.085 56.696 652.422 55.8163 652.599 54.5476C652.707 53.7818 652.367 52.998 651.702 52.5911C650.665 51.9641 649.295 52.3479 648.774 53.444C648.271 54.501 648.738 55.8189 649.856 56.2357" fill="#F8F2EE"/>
<path d="M474.888 94.9834C476.053 95.9286 477.507 95.1457 478.497 94.3395C479.515 93.5053 480.522 92.6485 481.539 91.8065C481.259 93.7665 481.328 95.7819 481.826 97.6888C482.059 98.556 482.63 99.3437 483.543 99.5127C484.432 99.6771 485.175 99.0905 485.466 98.2782C485.743 97.4838 485.7 96.5497 485.67 95.7181C485.637 94.8066 485.526 93.9061 485.36 93.0053C485.227 92.3409 485.063 91.6809 484.861 91.0343C485.373 91.4605 485.895 91.8935 486.408 92.3276C487.2 92.9878 487.985 93.657 488.776 94.3173C489.451 94.8814 490.141 95.4433 491.041 95.5178C492.985 95.6785 493.798 93.499 492.773 92.0277C492.248 91.2819 491.442 90.8005 490.678 90.3373C489.922 89.873 489.148 89.4513 488.347 89.0577C487.724 88.7515 487.088 88.4632 486.437 88.1849C486.944 88.0575 487.443 87.8829 487.921 87.671C488.797 87.2908 489.634 86.8035 490.366 86.1944C491.041 85.6334 491.7 85.0104 491.993 84.1576C492.284 83.289 492.043 82.3103 491.207 81.8411C490.326 81.3381 489.306 81.6502 488.537 82.2243C487.221 83.1969 485.985 84.2867 484.746 85.3608C485.487 83.4566 485.577 81.3305 484.829 79.3382C484.619 78.8052 484.367 78.1978 483.971 77.7551C483.943 77.7269 483.923 77.6976 483.888 77.6704C483.823 77.6071 483.759 77.5439 483.688 77.4896C482.977 76.9546 482.029 77.1522 481.498 77.8376C480.986 78.4881 480.872 79.372 480.779 80.1807C480.688 81.005 480.657 81.8533 480.711 82.6895C480.755 83.4547 480.869 84.2102 481.037 84.9579C480.541 84.4733 480.009 84.0256 479.477 83.6263C478.856 83.167 478.197 82.7695 477.416 82.6944C476.58 82.6191 475.69 82.9531 475.229 83.6848C474.794 84.3728 474.848 85.209 475.24 85.9093C475.653 86.6468 476.377 87.0513 477.138 87.3222C477.674 87.5201 478.222 87.6921 478.76 87.8495C477.417 88.5204 476.208 89.4619 475.23 90.636C474.238 91.8281 473.403 93.7938 474.888 94.9834" fill="#F8F2EE"/>
<path d="M482.851 90.2374C484.086 90.6967 485.415 89.8181 485.599 88.5412C485.706 87.7754 485.367 86.9988 484.695 86.5928C483.666 85.9647 482.297 86.3484 481.777 87.4445C481.272 88.4942 481.733 89.8205 482.851 90.2374" fill="#E36025"/>
<path d="M797.865 200.804C800.278 199.954 800.475 197.091 800.216 194.916C799.945 192.646 799.626 190.382 799.339 188.115C801.906 190.326 804.85 192.084 808.043 193.089C809.488 193.549 811.144 193.436 812.208 192.248C813.253 191.103 813.077 189.458 812.172 188.292C811.286 187.147 809.922 186.364 808.692 185.642C807.358 184.848 805.963 184.181 804.527 183.616C803.449 183.185 802.358 182.827 801.236 182.529C802.321 182.169 803.406 181.809 804.499 181.448C806.164 180.894 807.83 180.349 809.503 179.794C810.926 179.315 812.356 178.826 813.283 177.562C815.277 174.862 812.88 171.669 809.842 171.824C808.292 171.906 806.876 172.664 805.514 173.351C804.168 174.043 802.853 174.787 801.579 175.597C800.564 176.235 799.562 176.903 798.588 177.607C798.861 176.746 799.067 175.854 799.201 174.957C799.445 173.325 799.494 171.65 799.295 170.008C799.1 168.51 798.796 166.964 797.838 165.757C796.86 164.529 795.254 163.988 793.82 164.78C792.298 165.625 791.808 167.411 791.937 169.062C792.137 171.885 792.586 174.689 792.997 177.498C790.951 174.671 787.977 172.589 784.429 171.866C783.487 171.671 782.381 171.491 781.395 171.661C781.326 171.671 781.265 171.688 781.197 171.705C781.044 171.743 780.9 171.787 780.759 171.847C779.346 172.397 778.769 173.963 779.267 175.371C779.74 176.718 780.896 177.705 781.973 178.576C783.077 179.475 784.257 180.292 785.505 180.979C786.65 181.608 787.846 182.151 789.066 182.579C787.923 182.867 786.799 183.233 785.738 183.645C784.513 184.137 783.353 184.747 782.534 185.821C781.663 186.973 781.338 188.592 781.969 189.941C782.565 191.207 783.813 191.894 785.172 191.967C786.601 192.037 787.836 191.337 788.929 190.472C789.687 189.863 790.418 189.225 791.146 188.571C790.895 191.162 791.148 193.802 791.943 196.318C792.749 198.856 794.815 201.88 797.865 200.804" fill="#F8F2EE"/>
<path d="M798.117 186.02C800.227 184.444 800.155 181.293 798.173 179.657C796.981 178.672 795.278 178.411 793.864 179.102C791.676 180.18 790.872 182.878 792.185 184.905C793.441 186.838 796.203 187.45 798.117 186.02" fill="#E36025"/>
<path d="M252.888 18.9844C254.053 19.9296 255.513 19.1377 256.497 18.3406C257.515 17.5066 258.522 16.6499 259.538 15.8001C259.266 17.7666 259.327 19.7829 259.825 21.6895C260.058 22.5567 260.628 23.3363 261.542 23.5132C262.431 23.6776 263.173 23.0831 263.464 22.2709C263.741 21.4767 263.698 20.5506 263.668 19.7112C263.644 18.8066 263.524 17.8994 263.359 17.0066C263.225 16.3345 263.061 15.6746 262.859 15.028C263.38 15.461 263.892 15.8871 264.406 16.3212C265.198 16.9892 265.982 17.6504 266.773 18.3106C267.448 18.8746 268.139 19.4444 269.039 19.5188C270.983 19.6795 271.795 17.4924 270.77 16.0213C270.245 15.2756 269.44 14.8021 268.675 14.3311C267.92 13.8747 267.145 13.4453 266.353 13.0585C265.722 12.7534 265.085 12.4572 264.436 12.1869C264.941 12.0517 265.441 11.8849 265.928 11.6719C266.795 11.2929 267.631 10.7978 268.37 10.1876C269.039 9.63567 269.697 9.0049 269.99 8.15219C270.28 7.28372 270.049 6.31192 269.213 5.84285C268.324 5.34095 267.305 5.65303 266.535 6.21922C265.219 7.19163 263.983 8.28922 262.744 9.35531C263.494 7.45815 263.576 5.33335 262.827 3.3335C262.626 2.80733 262.365 2.19317 261.97 1.75848C261.942 1.73024 261.922 1.70091 261.887 1.67377C261.83 1.60942 261.758 1.54726 261.687 1.49298C260.976 0.958031 260.027 1.14776 259.496 1.83303C258.993 2.49028 258.871 3.37518 258.777 4.17581C258.688 5.00795 258.663 5.8471 258.709 6.68429C258.753 7.44946 258.868 8.21267 259.037 8.96034C258.54 8.47574 258.016 8.02704 257.476 7.6289C256.856 7.16968 256.205 6.7711 255.424 6.696C254.579 6.61389 253.689 6.94786 253.229 7.68741C252.794 8.37531 252.848 9.2114 253.248 9.91049C253.652 10.6411 254.376 11.0456 255.145 11.3231C255.672 11.5142 256.221 11.6863 256.76 11.8516C255.417 12.5224 254.208 13.4637 253.23 14.6377C252.237 15.8217 251.402 17.7872 252.888 18.9844" fill="#F3C127"/>
<path d="M260.858 14.2346C262.086 14.6952 263.416 13.8236 263.599 12.5462C263.707 11.7801 263.368 11.0032 262.702 10.5888C261.665 9.96143 260.297 10.3524 259.777 11.4489C259.273 12.499 259.733 13.8258 260.858 14.2346" fill="#F8F2EE"/>
<path d="M573.55 308.324C574.034 310.506 576.499 310.966 578.416 310.968C580.412 310.966 582.411 310.925 584.405 310.908C582.221 312.907 580.389 315.287 579.179 317.954C578.621 319.158 578.549 320.604 579.465 321.656C580.353 322.681 581.795 322.701 582.904 322.027C583.984 321.372 584.815 320.266 585.574 319.282C586.401 318.208 587.121 317.061 587.77 315.869C588.253 314.987 588.681 314.065 589.058 313.127C589.252 314.105 589.447 315.091 589.649 316.068C589.95 317.573 590.25 319.079 590.559 320.584C590.82 321.864 591.098 323.157 592.095 324.094C594.228 326.101 597.248 324.352 597.433 321.7C597.526 320.347 597.027 319.037 596.568 317.784C596.111 316.548 595.608 315.326 595.037 314.138C594.589 313.195 594.11 312.257 593.6 311.331C594.325 311.66 595.074 311.93 595.839 312.142C597.235 312.52 598.68 312.74 600.125 312.728C601.441 312.711 602.817 312.613 603.962 311.902C605.13 311.179 605.774 309.836 605.24 308.514C604.662 307.103 603.172 306.507 601.723 306.439C599.258 306.323 596.766 306.426 594.286 306.495C596.963 305.01 599.08 302.645 600.081 299.64C600.348 298.837 600.62 297.897 600.57 297.026C600.577 296.961 600.569 296.906 600.562 296.852C600.542 296.711 600.523 296.578 600.481 296.448C600.156 295.169 598.858 294.506 597.58 294.789C596.366 295.063 595.386 295.975 594.518 296.815C593.622 297.683 592.791 298.622 592.061 299.634C591.39 300.558 590.801 301.543 590.298 302.563C590.17 301.536 589.971 300.526 589.715 299.565C589.421 298.449 589.02 297.38 588.169 296.558C587.261 295.681 585.897 295.234 584.661 295.647C583.495 296.034 582.765 297.047 582.565 298.216C582.351 299.451 582.827 300.597 583.464 301.624C583.913 302.343 584.384 303.051 584.88 303.755C582.661 303.269 580.341 303.212 578.073 303.643C575.782 304.076 572.943 305.561 573.55 308.324" fill="#E36025"/>
<path d="M586.542 311.59C587.698 313.592 590.438 313.864 592.063 312.313C593.038 311.378 593.435 309.929 592.977 308.627C592.274 306.614 590.009 305.626 588.115 306.55C586.31 307.434 585.498 309.774 586.542 311.59" fill="#F8F2EE"/>
<path d="M205.696 314.224C207.612 313.549 207.772 311.33 207.572 309.628C207.364 307.873 207.115 306.101 206.891 304.341C208.924 306.057 211.259 307.412 213.789 308.194C214.939 308.546 216.246 308.456 217.097 307.526C217.931 306.638 217.798 305.355 217.082 304.451C216.376 303.569 215.292 302.957 214.326 302.4C213.266 301.785 212.156 301.271 211.018 300.831C210.17 300.499 209.299 300.224 208.41 299.998C209.274 299.713 210.137 299.428 211.001 299.143C212.323 298.708 213.653 298.28 214.975 297.845C216.109 297.475 217.241 297.09 217.983 296.105C219.572 293.997 217.676 291.521 215.266 291.641C214.034 291.713 212.908 292.308 211.821 292.85C210.757 293.381 209.707 293.965 208.696 294.598C207.894 295.093 207.096 295.618 206.318 296.179C206.537 295.501 206.699 294.809 206.813 294.107C207.012 292.84 207.056 291.533 206.893 290.263C206.745 289.1 206.512 287.886 205.753 286.956C204.982 286.005 203.698 285.586 202.566 286.197C201.356 286.865 200.961 288.253 201.056 289.541C201.214 291.731 201.561 293.918 201.884 296.101C200.263 293.906 197.908 292.297 195.094 291.734C194.344 291.59 193.467 291.449 192.685 291.582C192.631 291.59 192.585 291.604 192.533 291.619C192.411 291.652 192.29 291.684 192.179 291.731C191.053 292.162 190.596 293.379 190.985 294.47C191.361 295.523 192.277 296.282 193.127 296.965C194.002 297.66 194.94 298.292 195.926 298.824C196.835 299.311 197.782 299.731 198.748 300.063C197.837 300.292 196.949 300.573 196.108 300.901C195.133 301.288 194.208 301.753 193.556 302.592C192.859 303.5 192.604 304.759 193.104 305.803C193.572 306.789 194.559 307.32 195.642 307.371C196.773 307.422 197.756 306.871 198.62 306.197C199.221 305.722 199.811 305.227 200.392 304.717C200.18 306.733 200.374 308.786 201.002 310.739C201.635 312.722 203.268 315.063 205.696 314.224" fill="#E36025"/>
<path d="M205.167 302.787C206.483 301.798 206.443 299.83 205.196 298.803C204.453 298.19 203.389 298.033 202.509 298.463C201.142 299.133 200.641 300.819 201.455 302.086C202.241 303.298 203.973 303.679 205.167 302.787" fill="#F8F2EE"/>
<path d="M84.7095 213.054C84.598 212.997 84.4866 212.941 84.383 212.884C83.2511 212.306 82.0677 211.871 80.8484 211.522C79.6047 211.168 78.3029 210.911 77.017 211.163C73.8966 211.786 72.4547 215.177 73.831 218.003C74.9928 220.379 77.5179 222.034 79.9092 222.964C80.356 223.141 80.8074 223.294 81.271 223.421C81.0969 223.542 80.9306 223.661 80.7565 223.782C78.7431 225.258 76.4794 227.162 76.2772 229.858C76.0601 232.788 78.1803 235.469 81.2668 235.116C84.0635 234.795 85.8252 232.32 87.2609 230.132C87.2866 230.089 87.3123 230.045 87.3458 230C87.3491 230.024 87.3535 230.055 87.3647 230.078C88.1859 232.806 89.7212 235.914 92.5404 236.999C95.2671 238.05 98.7919 236.85 99.5409 233.797C99.976 232.022 99.1456 230.304 98.3573 228.773C97.7324 227.555 96.9971 226.401 96.168 225.316C96.858 225.411 97.5503 225.466 98.2549 225.495C99.751 225.549 101.23 225.422 102.703 225.143C104.115 224.88 105.652 224.552 106.859 223.734C108.386 222.702 109.115 220.869 108.468 219.094C107.833 217.357 106.32 216.384 104.622 215.862C101.711 214.974 98.496 214.977 95.545 215.616C95.4524 215.637 95.3521 215.659 95.2595 215.68C96.5539 213.28 97.7021 210.235 96.7526 207.557C95.7421 204.727 92.7417 203.259 89.9583 204.467C87.3701 205.592 85.8872 208.011 85.1521 210.653C84.928 211.437 84.7942 212.241 84.7095 213.054" fill="#A1A537"/>
<path d="M93.1099 221.267C93.417 220.226 93.368 219.101 92.7036 218.196C92.5782 218.021 92.4316 217.874 92.2803 217.753C92.0366 217.393 91.7011 217.096 91.2582 216.932C90.4618 216.642 89.6979 216.523 88.8567 216.75C87.7743 217.053 86.7893 217.871 86.4034 218.948C85.7322 220.803 86.7632 222.762 88.5379 223.502C90.3561 224.253 92.5563 223.122 93.1099 221.267" fill="white"/>
<path fill-rule="evenodd" clip-rule="evenodd" d="M458.117 289.777C457.343 287.004 456.86 281.916 452.089 283.163C456.223 282.843 456.575 280.228 456.626 276.155C456.628 275.886 456.239 274.259 456.702 274.707C457.564 278.281 457.893 282.498 462.169 281.999C458.703 282.865 457.612 285.671 458.117 289.777" fill="#5F632A"/>
<path fill-rule="evenodd" clip-rule="evenodd" d="M742.117 334.777C741.342 331.996 740.859 326.91 736.088 328.157C740.222 327.836 740.582 325.22 740.625 321.149C740.627 320.881 740.239 319.254 740.702 319.71C741.564 323.283 741.892 327.491 746.168 326.993C742.702 327.859 741.611 330.664 742.117 334.777" fill="#F3C127"/>
<path fill-rule="evenodd" clip-rule="evenodd" d="M619.006 286.34C617.68 281.06 615.898 276.288 608.834 277.627C608.382 277.739 608.281 277.439 608.551 277.401C616.372 277.64 617.22 272.377 616.863 266.155C618.315 271.49 619.809 276.77 626.614 275.911C620.723 276.738 618.037 280.099 619.006 286.34" fill="#E36025"/>
<path d="M365.885 310.983C367.057 311.927 368.51 311.137 369.494 310.34C370.519 309.496 371.527 308.648 372.543 307.798C372.264 309.765 372.325 311.782 372.831 313.687C373.056 314.556 373.626 315.335 374.541 315.512C375.429 315.676 376.171 315.082 376.462 314.27C376.74 313.475 376.697 312.549 376.674 311.709C376.641 310.797 376.53 309.897 376.357 309.005C376.231 308.332 376.059 307.673 375.857 307.027C376.378 307.46 376.891 307.886 377.405 308.32C378.197 308.988 378.989 309.648 379.78 310.308C380.447 310.873 381.139 311.443 382.046 311.516C383.982 311.678 384.802 309.49 383.77 308.02C383.252 307.273 382.438 306.793 381.675 306.33C380.92 305.873 380.145 305.444 379.352 305.057C378.721 304.752 378.084 304.456 377.434 304.178C377.94 304.05 378.439 303.876 378.927 303.671C379.793 303.284 380.63 302.796 381.37 302.186C382.039 301.634 382.704 301.002 382.99 300.151C383.281 299.282 383.049 298.31 382.213 297.841C381.324 297.34 380.303 297.644 379.534 298.218C378.218 299.19 376.989 300.279 375.743 301.354C376.492 299.457 376.575 297.332 375.825 295.332C375.623 294.798 375.371 294.191 374.969 293.757C374.948 293.72 374.92 293.692 374.893 293.671C374.829 293.608 374.757 293.546 374.685 293.492C373.975 292.957 373.025 293.147 372.494 293.832C371.99 294.481 371.869 295.374 371.783 296.174C371.686 297.007 371.661 297.846 371.707 298.683C371.751 299.448 371.866 300.211 372.043 300.958C371.538 300.475 371.013 300.018 370.474 299.628C369.86 299.16 369.202 298.77 368.421 298.695C367.576 298.613 366.694 298.946 366.225 299.678C365.798 300.365 365.853 301.209 366.244 301.902C366.649 302.64 367.381 303.043 368.143 303.322C368.678 303.512 369.218 303.685 369.765 303.849C368.422 304.52 367.205 305.463 366.226 306.637C365.234 307.821 364.406 309.785 365.885 310.983" fill="#F3C127"/>
<path d="M373.856 306.234C375.085 306.694 376.422 305.815 376.599 304.546C376.707 303.78 376.367 302.997 375.702 302.59C374.665 301.963 373.295 302.346 372.774 303.443C372.271 304.5 372.738 305.817 373.856 306.234" fill="#F8F2EE"/>
<path d="M920.464 296.115C921.629 297.06 923.083 296.277 924.074 295.471C925.092 294.637 926.099 293.78 927.116 292.938C926.836 294.898 926.904 296.914 927.403 298.821C927.636 299.688 928.207 300.476 929.12 300.645C930.008 300.809 930.752 300.222 931.042 299.41C931.32 298.616 931.276 297.682 931.246 296.85C931.214 295.938 931.103 295.038 930.937 294.137C930.804 293.473 930.639 292.813 930.437 292.166C930.95 292.592 931.471 293.025 931.985 293.459C932.776 294.12 933.561 294.789 934.352 295.449C935.027 296.013 935.718 296.575 936.617 296.65C938.561 296.81 939.374 294.631 938.35 293.16C937.824 292.414 937.018 291.932 936.254 291.469C935.498 291.005 934.725 290.583 933.923 290.19C933.3 289.883 932.664 289.595 932.014 289.317C932.52 289.189 933.019 289.015 933.498 288.803C934.373 288.423 935.21 287.935 935.942 287.326C936.618 286.765 937.276 286.142 937.569 285.289C937.86 284.421 937.619 283.442 936.783 282.973C935.903 282.47 934.883 282.782 934.114 283.356C932.798 284.329 931.561 285.419 930.323 286.493C931.063 284.588 931.154 282.462 930.405 280.47C930.195 279.937 929.943 279.33 929.548 278.887C929.52 278.859 929.5 278.829 929.464 278.802C929.4 278.739 929.335 278.676 929.264 278.621C928.554 278.086 927.605 278.284 927.074 278.969C926.562 279.62 926.448 280.504 926.355 281.312C926.265 282.137 926.233 282.985 926.287 283.821C926.331 284.587 926.445 285.342 926.614 286.09C926.117 285.605 925.586 285.157 925.053 284.758C924.433 284.299 923.773 283.901 922.993 283.826C922.156 283.751 921.267 284.085 920.806 284.817C920.37 285.505 920.424 286.341 920.817 287.041C921.23 287.779 921.954 288.183 922.714 288.454C923.25 288.652 923.798 288.824 924.337 288.981C922.994 289.652 921.784 290.594 920.806 291.768C919.814 292.96 918.979 294.926 920.464 296.115" fill="#F8F2EE"/>
<path d="M928.427 291.369C929.663 291.829 930.992 290.95 931.175 289.673C931.282 288.907 930.944 288.131 930.272 287.725C929.242 287.096 927.873 287.48 927.353 288.576C926.849 289.626 927.309 290.952 928.427 291.369" fill="#E36025"/>
<path d="M170.865 373.802C173.278 372.952 173.475 370.09 173.216 367.914C172.945 365.644 172.626 363.381 172.339 361.113C174.906 363.324 177.85 365.082 181.043 366.087C182.488 366.547 184.144 366.434 185.208 365.246C186.253 364.101 186.077 362.456 185.172 361.29C184.286 360.145 182.922 359.362 181.692 358.64C180.358 357.846 178.963 357.179 177.527 356.614C176.449 356.183 175.358 355.825 174.236 355.528C175.321 355.167 176.406 354.807 177.499 354.446C179.164 353.893 180.83 353.347 182.503 352.792C183.926 352.313 185.356 351.824 186.283 350.56C188.277 347.86 185.88 344.667 182.842 344.822C181.292 344.904 179.876 345.662 178.514 346.349C177.168 347.041 175.853 347.785 174.579 348.595C173.564 349.233 172.562 349.901 171.588 350.605C171.861 349.744 172.067 348.852 172.201 347.955C172.445 346.323 172.494 344.648 172.295 343.006C172.1 341.508 171.796 339.962 170.838 338.755C169.86 337.527 168.254 336.986 166.82 337.778C165.298 338.623 164.808 340.409 164.937 342.06C165.137 344.883 165.586 347.687 165.997 350.496C163.951 347.669 160.977 345.587 157.429 344.864C156.487 344.669 155.381 344.489 154.395 344.659C154.326 344.669 154.265 344.686 154.197 344.703C154.044 344.741 153.9 344.785 153.759 344.845C152.346 345.395 151.769 346.961 152.267 348.369C152.74 349.716 153.896 350.703 154.973 351.574C156.077 352.473 157.257 353.29 158.505 353.977C159.65 354.607 160.846 355.149 162.066 355.577C160.923 355.865 159.799 356.231 158.738 356.643C157.513 357.135 156.353 357.745 155.534 358.819C154.663 359.971 154.338 361.59 154.969 362.939C155.565 364.205 156.813 364.892 158.172 364.965C159.601 365.035 160.836 364.335 161.929 363.47C162.687 362.861 163.418 362.223 164.146 361.57C163.895 364.16 164.148 366.8 164.943 369.316C165.749 371.854 167.815 374.878 170.865 373.802" fill="#F8F2EE"/>
<path d="M171.117 359.018C173.227 357.442 173.155 354.291 171.173 352.655C169.981 351.67 168.278 351.409 166.864 352.1C164.676 353.178 163.872 355.876 165.185 357.903C166.441 359.836 169.203 360.448 171.117 359.018" fill="#E36025"/>
<path d="M753.888 245.983C755.053 246.928 756.513 246.136 757.497 245.339C758.515 244.505 759.522 243.648 760.538 242.799C760.266 244.765 760.327 246.781 760.825 248.688C761.058 249.555 761.628 250.335 762.542 250.512C763.431 250.676 764.173 250.082 764.464 249.269C764.741 248.475 764.698 247.549 764.668 246.71C764.644 245.805 764.524 244.898 764.359 244.005C764.225 243.333 764.061 242.673 763.859 242.027C764.38 242.459 764.892 242.886 765.406 243.32C766.198 243.988 766.982 244.649 767.773 245.309C768.448 245.873 769.139 246.443 770.039 246.517C771.983 246.678 772.795 244.491 771.77 243.02C771.245 242.274 770.44 241.801 769.675 241.33C768.92 240.873 768.145 240.444 767.353 240.057C766.722 239.752 766.085 239.456 765.436 239.185C765.941 239.05 766.441 238.883 766.928 238.67C767.795 238.291 768.631 237.796 769.37 237.186C770.039 236.634 770.697 236.003 770.99 235.151C771.28 234.282 771.049 233.31 770.213 232.841C769.324 232.339 768.305 232.652 767.535 233.218C766.219 234.19 764.983 235.288 763.744 236.354C764.494 234.457 764.576 232.332 763.827 230.332C763.626 229.806 763.365 229.192 762.97 228.757C762.942 228.729 762.922 228.699 762.887 228.672C762.83 228.608 762.758 228.546 762.687 228.492C761.976 227.957 761.027 228.146 760.496 228.832C759.993 229.489 759.871 230.374 759.777 231.174C759.688 232.006 759.663 232.846 759.709 233.683C759.753 234.448 759.868 235.211 760.037 235.959C759.54 235.474 759.016 235.026 758.476 234.627C757.856 234.168 757.205 233.77 756.424 233.695C755.579 233.612 754.689 233.946 754.229 234.686C753.794 235.374 753.848 236.21 754.248 236.909C754.652 237.64 755.376 238.044 756.145 238.322C756.672 238.513 757.221 238.685 757.76 238.85C756.417 239.521 755.208 240.462 754.23 241.636C753.237 242.82 752.402 244.786 753.888 245.983" fill="#F3C127"/>
<path d="M761.858 241.233C763.086 241.694 764.416 240.822 764.599 239.545C764.707 238.779 764.368 238.002 763.702 237.587C762.665 236.96 761.297 237.351 760.777 238.447C760.273 239.498 760.733 240.824 761.858 241.233" fill="#F8F2EE"/>
<path d="M509.696 216.225C511.612 215.55 511.772 213.331 511.572 211.629C511.364 209.874 511.115 208.102 510.891 206.342C512.924 208.058 515.259 209.413 517.789 210.195C518.939 210.547 520.246 210.457 521.097 209.527C521.931 208.639 521.798 207.356 521.082 206.452C520.376 205.57 519.292 204.958 518.326 204.401C517.266 203.786 516.156 203.272 515.018 202.832C514.17 202.5 513.299 202.225 512.41 201.999C513.274 201.714 514.137 201.429 515.001 201.144C516.323 200.709 517.653 200.281 518.975 199.846C520.109 199.476 521.241 199.091 521.983 198.106C523.572 195.998 521.676 193.522 519.266 193.642C518.034 193.714 516.908 194.309 515.821 194.851C514.757 195.382 513.707 195.966 512.696 196.599C511.894 197.094 511.096 197.619 510.318 198.18C510.537 197.502 510.699 196.81 510.813 196.108C511.012 194.841 511.056 193.534 510.893 192.264C510.745 191.1 510.512 189.887 509.753 188.957C508.982 188.006 507.698 187.587 506.566 188.198C505.356 188.866 504.961 190.254 505.056 191.542C505.214 193.732 505.561 195.919 505.884 198.102C504.263 195.907 501.908 194.298 499.094 193.735C498.344 193.591 497.467 193.45 496.685 193.583C496.631 193.591 496.585 193.605 496.533 193.62C496.411 193.653 496.29 193.685 496.179 193.732C495.053 194.163 494.596 195.38 494.985 196.471C495.361 197.524 496.277 198.283 497.127 198.966C498.002 199.661 498.94 200.293 499.926 200.825C500.835 201.312 501.782 201.732 502.748 202.064C501.837 202.293 500.949 202.574 500.108 202.902C499.133 203.289 498.208 203.754 497.556 204.593C496.859 205.501 496.604 206.76 497.104 207.804C497.572 208.79 498.559 209.321 499.642 209.372C500.773 209.423 501.756 208.872 502.62 208.197C503.221 207.723 503.811 207.228 504.392 206.718C504.18 208.734 504.374 210.787 505.002 212.74C505.635 214.723 507.268 217.064 509.696 216.225Z" fill="#E36025"/>
<path d="M509.167 204.788C510.483 203.799 510.443 201.831 509.196 200.804C508.453 200.191 507.389 200.034 506.509 200.464C505.142 201.134 504.641 202.82 505.455 204.087C506.241 205.299 507.973 205.68 509.167 204.788Z" fill="#F8F2EE"/>
<path d="M847.709 346.054C847.598 345.997 847.487 345.941 847.383 345.884C846.251 345.306 845.068 344.871 843.848 344.522C842.605 344.168 841.303 343.911 840.017 344.163C836.897 344.786 835.455 348.177 836.831 351.003C837.993 353.379 840.518 355.034 842.909 355.964C843.356 356.141 843.807 356.294 844.271 356.421C844.097 356.542 843.931 356.661 843.757 356.782C841.743 358.258 839.479 360.162 839.277 362.858C839.06 365.788 841.18 368.469 844.267 368.116C847.063 367.795 848.825 365.32 850.261 363.132C850.287 363.089 850.312 363.045 850.346 363C850.349 363.024 850.354 363.055 850.365 363.078C851.186 365.806 852.721 368.914 855.54 369.999C858.267 371.05 861.792 369.85 862.541 366.797C862.976 365.022 862.146 363.304 861.357 361.773C860.732 360.555 859.997 359.401 859.168 358.316C859.858 358.411 860.55 358.466 861.255 358.495C862.751 358.549 864.23 358.422 865.703 358.143C867.115 357.88 868.652 357.552 869.859 356.734C871.386 355.702 872.115 353.869 871.468 352.094C870.833 350.357 869.32 349.384 867.622 348.862C864.711 347.974 861.496 347.977 858.545 348.616C858.452 348.637 858.352 348.659 858.26 348.68C859.554 346.28 860.702 343.235 859.753 340.557C858.742 337.727 855.742 336.259 852.958 337.467C850.37 338.592 848.887 341.011 848.152 343.653C847.928 344.437 847.794 345.241 847.709 346.054" fill="#A1A537"/>
<path d="M856.11 354.266C856.417 353.226 856.368 352.101 855.704 351.196C855.578 351.021 855.432 350.874 855.28 350.753C855.037 350.393 854.701 350.096 854.258 349.932C853.462 349.642 852.698 349.523 851.857 349.75C850.774 350.053 849.789 350.87 849.403 351.947C848.732 353.803 849.763 355.762 851.538 356.502C853.356 357.253 855.556 356.122 856.11 354.266" fill="white"/>
<path d="M2.88789 371.983C4.05275 372.928 5.51333 372.136 6.49685 371.339C7.51486 370.505 8.52176 369.648 9.53756 368.799C9.26617 370.765 9.32725 372.781 9.82543 374.688C10.0584 375.555 10.6285 376.335 11.5425 376.512C12.4309 376.676 13.173 376.082 13.4637 375.269C13.7411 374.475 13.6982 373.549 13.6676 372.71C13.6437 371.805 13.5241 370.898 13.3589 370.005C13.2248 369.333 13.0606 368.673 12.8586 368.027C13.3799 368.459 13.8923 368.886 14.4058 369.32C15.1983 369.988 15.9819 370.649 16.7732 371.309C17.4479 371.873 18.1393 372.443 19.0389 372.517C20.9826 372.678 21.7946 370.491 20.7702 369.02C20.2446 368.274 19.4398 367.801 18.675 367.33C17.9202 366.873 17.1453 366.444 16.3527 366.057C15.7223 365.752 15.0853 365.456 14.436 365.185C14.941 365.05 15.4415 364.883 15.9276 364.67C16.7952 364.291 17.6306 363.796 18.3705 363.186C19.0392 362.634 19.6967 362.003 19.9897 361.151C20.2805 360.282 20.0486 359.31 19.2127 358.841C18.3244 358.339 17.3045 358.652 16.5346 359.218C15.2185 360.19 13.9835 361.288 12.7441 362.354C13.4936 360.457 13.576 358.332 12.8266 356.332C12.6256 355.806 12.3646 355.192 11.9701 354.757C11.9423 354.729 11.9223 354.699 11.8868 354.672C11.8301 354.608 11.7578 354.546 11.6867 354.492C10.9764 353.957 10.0266 354.146 9.49578 354.832C8.99275 355.489 8.87102 356.374 8.77713 357.174C8.68768 358.006 8.66271 358.846 8.70892 359.683C8.75295 360.448 8.86815 361.211 9.03674 361.959C8.53995 361.474 8.01644 361.026 7.47622 360.627C6.85598 360.168 6.20456 359.77 5.42395 359.695C4.57884 359.612 3.68901 359.946 3.2293 360.686C2.79409 361.374 2.84808 362.21 3.248 362.909C3.65235 363.64 4.37605 364.044 5.14542 364.322C5.67242 364.513 6.22055 364.685 6.75979 364.85C5.41716 365.521 4.20782 366.462 3.22964 367.636C2.237 368.82 1.4018 370.786 2.88789 371.983" fill="#F3C127"/>
<path d="M10.8577 367.233C12.0859 367.694 13.4158 366.822 13.5994 365.545C13.7067 364.779 13.3677 364.002 12.7019 363.587C11.6652 362.96 10.2973 363.351 9.77708 364.447C9.27255 365.498 9.73319 366.824 10.8577 367.233" fill="#F8F2EE"/>
</svg>
